<?xml version="1.0" standalone="no"?>
<!DOCTYPE svg PUBLIC "-//W3C//DTD SVG 1.1//EN" "http://www.w3.org/Graphics/SVG/1.1/DTD/svg11.dtd" >
<svg xmlns="http://www.w3.org/2000/svg">
<metadata></metadata>
<defs>
<font id="keniaregular" horiz-adv-x="452" >
<font-face units-per-em="1000" ascent="750" descent="-250" />
<missing-glyph horiz-adv-x="194" />
<glyph unicode="&#xd;" horiz-adv-x="194" />
<glyph unicode=" "  horiz-adv-x="194" />
<glyph unicode="&#x09;" horiz-adv-x="194" />
<glyph unicode="&#xa0;" horiz-adv-x="194" />
<glyph unicode="!" horiz-adv-x="258" d="M194 233h-9q-23 0 -45 7t-40 21t-29 36t-11 52v403q27 0 51 -8.5t42.5 -24t29.5 -37.5t11 -50v-399zM64 66q0 31 21 52t50 21q31 0 52 -21t21 -52q0 -29 -21 -50t-52 -21q-29 0 -50 21t-21 50z" />
<glyph unicode="&#x22;" horiz-adv-x="404" d="M176 615q0 -51 -25.5 -82t-85.5 -31v146q0 32 9 54t24 35t35 18.5t43 5.5v-146zM339 615q0 -51 -25.5 -82t-85.5 -31v146q0 32 9 54t24 35t35 18.5t43 5.5v-146z" />
<glyph unicode="#" horiz-adv-x="718" d="M361 439q0 -51 -25.5 -82t-85.5 -31v196q0 32 9 54t24 35t35 18.5t43 5.5v-196zM501 439q0 -51 -25.5 -82t-85.5 -31v196q0 32 9 54t24 35t35 18.5t43 5.5v-196zM328 116q0 -51 -25.5 -82t-85.5 -31v206q0 32 9 54t24 35t35 18.5t43 5.5v-206zM478 117q0 -51 -25.5 -82 t-85.5 -31v206q0 32 9 54t24 35t35 18.5t43 5.5v-206zM663 459q0 -23 -2.5 -43t-12 -35t-28 -23.5t-50.5 -8.5h-56v4q0 35 6.5 56t17.5 32t26.5 14.5t32.5 3.5h66zM644 296q0 -23 -2.5 -43t-12 -35t-28 -23.5t-50.5 -8.5h-56v4q0 35 6.5 56t17.5 32t26.5 14.5t32.5 3.5h66z M236 459q0 -23 -2.5 -43t-12 -35t-28 -23.5t-50.5 -8.5h-56v4q0 35 6.5 56t17.5 32t26.5 14.5t32.5 3.5h66zM205 296q0 -23 -2.5 -43t-12 -35t-28 -23.5t-50.5 -8.5h-56v4q0 35 6.5 56t17.5 32t26.5 14.5t32.5 3.5h66z" />
<glyph unicode="$" horiz-adv-x="466" d="M206 260h-12q-23 0 -46 5t-42.5 18.5t-31.5 37t-12 59.5v146q0 36 12 59.5t31.5 37t42.5 18.5t46 5h12v-386zM55 96q0 31 12 50.5t29 30.5t36 14.5t33 3.5q12 0 20 -2v-50q0 -37 29 -37q9 0 15 3t13 9q3 -8 3.5 -20t0.5 -19q0 -12 -4 -26t-13.5 -25.5t-26.5 -19.5t-43 -8 q-27 0 -46.5 9t-32 22.5t-19 30.5t-6.5 34zM262 375h12q22 0 45.5 -5t43 -18.5t31.5 -37t12 -59.5v-136q0 -36 -12 -59.5t-31.5 -37t-43 -18.5t-45.5 -5h-12v376zM411 550q0 -32 -12 -51t-29 -30t-36 -14.5t-33 -3.5q-12 0 -20 2v50q0 37 -29 37q-9 0 -15 -3t-13 -9 q-3 8 -3.5 20t-0.5 19q0 12 4 26t13.5 25.5t26.5 19.5t43 8q27 0 46.5 -9t32 -22.5t19 -31t6.5 -33.5zM206 -23q5 -3 18.5 -4t28.5 -1q20 0 38 2t24 5v-166q-4 0 -7 -0.5t-7 -0.5q-24 0 -42 7.5t-29.5 19.5t-17.5 26.5t-6 28.5v83zM206 757q0 14 6 28.5t17.5 26.5t29.5 19.5 t42 7.5q4 0 7 -0.5t7 -0.5v-166q-6 3 -24 5t-38 2q-15 0 -28.5 -1t-18.5 -4v83z" />
<glyph unicode="%" horiz-adv-x="563" d="M222 0h-12q-22 0 -44 5t-39 18.5t-28 37t-11 59.5v156q0 36 11 59.5t28 37t39 18.5t44 5h12v-396zM340 762h12q22 0 44 -5t39 -18.5t28 -37t11 -59.5v-156q0 -36 -11 -59.5t-28 -37t-39 -18.5t-44 -5h-12v396zM139 555q0 -14 4 -25t21 -11q13 0 20 7t12 10q1 -3 1 -7v-6 q0 -26 -15.5 -47t-52.5 -21q-38 0 -61 21.5t-23 75.5v114q0 43 26 61.5t59 18.5h9v-191zM350 101q0 -14 4 -25t21 -11q13 0 20 7t12 10q1 -3 1 -7v-6q0 -26 -15.5 -47t-52.5 -21q-43 0 -63.5 24t-20.5 78v109q0 43 26 61.5t59 18.5h9v-191zM424 209q0 14 -4.5 25t-21.5 11 q-13 0 -20 -7t-12 -10q0 3 -0.5 5.5t-0.5 5.5q0 13 3 25.5t10.5 22.5t21 16t33.5 6q85 0 85 -107v-104q0 -22 -7.5 -37t-19.5 -24.5t-27.5 -14t-31.5 -4.5h-8v191zM213 663q0 14 -4.5 25t-21.5 11q-13 0 -20 -7t-12 -10q0 3 -0.5 5.5t-0.5 5.5q0 13 3 25.5t10.5 22.5t21 16 t33.5 6q85 0 85 -107v-104q0 -22 -7.5 -37t-19.5 -24.5t-27.5 -14t-31.5 -4.5h-8v191z" />
<glyph unicode="&#x26;" horiz-adv-x="572" d="M408 -1h-12q-23 0 -46 5t-42.5 18.5t-31.5 37t-12 59.5v288h12q22 0 45.5 -5t43 -18.5t31.5 -37t12 -59.5v-288zM204 155q0 -26 2.5 -44t16.5 -18q9 0 12 2.5t10 8.5v-11q0 -41 -21 -68t-69 -27q-46 0 -70.5 26.5t-24.5 71.5v146q0 34 10.5 56.5t27.5 36t38 19.5t41 6 q7 0 13.5 -0.5t13.5 -1.5v-203zM204 372h-12q-23 0 -46 5t-42.5 18.5t-31.5 37t-12 59.5v114q0 36 12 59.5t31.5 37t42.5 18.5t46 5h12v-354zM264 424v149q0 23 -2.5 40.5t-16.5 17.5q-9 0 -12 -2.5t-10 -8.5q-1 5 -1 8v9q0 37 20.5 63t65.5 26q46 0 71 -29t25 -66v-99 q0 -31 -11.5 -52t-29 -34t-38 -18.5t-39.5 -5.5q-6 0 -11.5 0.5t-10.5 1.5zM541 410q1 -5 1 -9v-8q0 -49 -27 -80.5t-76 -31.5h-11q0 5 0.5 9.5t0.5 9.5q0 54 -18 78t-47 32h177z" />
<glyph unicode="'" horiz-adv-x="216" d="M171 595q0 -51 -25.5 -82t-85.5 -31v166q0 32 9 54t24 35t35 18.5t43 5.5v-166z" />
<glyph unicode="(" horiz-adv-x="538" d="M214 -100h-10q-26 0 -50 5t-42.5 18t-30 36t-11.5 60v487q0 36 11 59t29 36.5t41 19t47 5.5h16v-726zM260 591q0 63 32 99t92 36q27 0 45.5 -7.5t29 -19.5t15 -27.5t4.5 -31.5q0 -13 -6 -29q-14 12 -25 12q-20 0 -27.5 -17t-7.5 -37v-650q0 -11 1 -22.5t5 -21t10.5 -15.5 t18.5 -6q8 0 13 2.5t10 7.5q4 0 6 -11.5t2 -15.5q0 -16 -4.5 -31.5t-15 -27.5t-28 -19.5t-44.5 -7.5q-60 0 -93 36t-33 99v705z" />
<glyph unicode=")" horiz-adv-x="538" d="M324 626h16q24 0 47 -5.5t41 -19t29 -36.5t11 -59v-487q0 -37 -11.5 -60t-30 -36t-43 -18t-49.5 -5h-10v726zM278 -114q0 -63 -32 -99t-92 -36q-27 0 -45.5 7.5t-29 19.5t-15 27.5t-4.5 31.5q0 8 1.5 14.5t4.5 14.5q13 -12 25 -12t18.5 6t10.5 15.5t5 21t1 22.5v650 q0 20 -7.5 37t-27.5 17q-8 0 -13 -2.5t-10 -7.5q-4 7 -6 11.5t-2 15.5q0 16 5 31.5t16.5 27.5t29.5 19.5t45 7.5q60 0 91 -36t31 -99v-705z" />
<glyph unicode="*" horiz-adv-x="511" d="M228 528q-7 -7 -13 -12q10 -9 19 -18l-55 -52q-18 -17 -34.5 -24t-35.5 -7q-26 0 -51 13t-48 36l47 46l-47 45q20 21 45 36t54 15q17 0 35.5 -7.5t36.5 -24.5zM210 264q-23 23 -36 48t-13 51q0 18 7 36t23 35l53 55q6 -6 11 -12l12 12l52 -55q17 -18 24 -34.5t7 -35.5 q0 -26 -13 -51t-36 -48l-46 46zM329 573q17 17 35.5 24.5t36.5 7.5q28 0 53.5 -15t45.5 -35l-47 -45l48 -45q-23 -23 -48 -36t-51 -13q-19 0 -37 7t-34 23l-55 53q9 9 19 17q-6 5 -12 12zM273 537q-10 10 -19 20q-7 -9 -17 -19l-45 46q-17 17 -24.5 35.5t-7.5 36.5 q0 28 15 53.5t35 45.5l45 -48l45 48q21 -20 36 -45t15 -54q0 -17 -7.5 -35.5t-24.5 -36.5z" />
<glyph unicode="+" horiz-adv-x="495" d="M305 87q-57 0 -85 23.5t-28 78.5v56h-147q0 57 23.5 85t78.5 28h45v154q57 0 85 -22t28 -70v-62h145q0 -57 -22 -85t-70 -28h-53v-158z" />
<glyph unicode="," horiz-adv-x="208" d="M45 14q0 27 9.5 46.5t24.5 32t35 18.5t41 6h8v-146q0 -32 -10 -54t-26.5 -35t-38 -18.5t-43.5 -5.5v156z" />
<glyph unicode="-" horiz-adv-x="389" d="M339 374q0 -23 -8.5 -43t-23.5 -35t-35.5 -24t-45.5 -9h-176q0 22 8 42.5t23 35.5t35.5 24t46.5 9h176z" />
<glyph unicode="." horiz-adv-x="254" d="M55 67q0 31 21 52t50 21q31 0 52 -21t21 -52q0 -29 -21 -50t-52 -21q-29 0 -50 21t-21 50z" />
<glyph unicode="/" horiz-adv-x="446" d="M242 762h12q22 0 45.5 -5t43 -18.5t31.5 -37t12 -59.5v-156q0 -36 -12 -59.5t-31.5 -37t-43 -18.5t-45.5 -5h-12v396zM204 0h-12q-23 0 -46 5t-42.5 18.5t-31.5 37t-12 59.5v156q0 36 12 59.5t31.5 37t42.5 18.5t46 5h12v-396z" />
<glyph unicode="0" horiz-adv-x="453" d="M204 0h-10q-26 0 -50 5t-42.5 18t-30 36t-11.5 60v487q0 36 11 59t29 36.5t41 19t47 5.5h16v-726zM249 728l10 -2q25 1 49.5 -3.5t43 -17.5t30 -36t11.5 -60v-487q0 -36 -11 -59.5t-29 -37t-41 -18.5t-47 -5h-16v726z" />
<glyph unicode="1" horiz-adv-x="259" d="M60 726q24 0 49.5 -6t46.5 -19.5t34.5 -37t13.5 -57.5v-487q0 -37 -11.5 -60t-30 -36t-43 -18t-49.5 -5h-10v726z" />
<glyph unicode="2" horiz-adv-x="464" d="M255 726h12q22 0 45.5 -5t43 -18.5t31.5 -37t12 -59.5v-166q0 -36 -12 -59.5t-31.5 -37t-43 -18.5t-45.5 -5h-12v406zM390 0h-12q-23 0 -46 5t-42.5 18t-31.5 36.5t-12 59.5v23q0 36 12 59.5t31.5 37t42.5 18.5t46 5h12v-262zM50 630q0 17 6 34t19 31t32 22.5t45 8.5 q27 0 44 -8t27 -19.5t14 -25.5t4 -26q0 -7 -0.5 -19t-3.5 -20q-7 6 -13 9t-15 3q-29 0 -29 -37v-50q-8 -2 -20 -2q-14 0 -33 3.5t-36 14.5t-29 30t-12 51zM206 0h-12q-23 0 -46 6t-42.5 20.5t-31.5 39t-12 60.5v76q0 36 12 59.5t31.5 37t42.5 18.5t46 5h12v-322z" />
<glyph unicode="3" horiz-adv-x="478" d="M269 726h12q22 0 45.5 -5t43 -18.5t31.5 -37t12 -59.5v-114q0 -36 -12 -59.5t-31.5 -37t-43 -18.5t-45.5 -5h-12v354zM50 630q0 17 6 34t19 31t32 22.5t45 8.5q27 0 44 -8t27 -19.5t14 -25.5t4 -26q0 -7 -0.5 -19t-3.5 -20q-7 6 -13 9t-15 3q-29 0 -29 -37v-50 q-8 -2 -20 -2q-14 0 -33 3.5t-36 14.5t-29 30t-12 51zM269 355h12q22 0 45.5 -5t43 -18.5t31.5 -37t12 -59.5v-114q0 -36 -12 -59.5t-31.5 -37t-43 -18.5t-45.5 -5h-12v354zM50 95q0 31 12 50.5t29 30.5t36 14.5t33 3.5q12 0 20 -2v-50q0 -37 29 -37q9 0 15 3t13 9 q3 -8 3.5 -20t0.5 -19q0 -12 -4 -26t-13.5 -25.5t-26.5 -19.5t-43 -8q-27 0 -46.5 9t-32 22.5t-19 30.5t-6.5 34z" />
<glyph unicode="4" horiz-adv-x="550" d="M194 242h-12q-23 0 -46 5t-42.5 18.5t-31.5 37t-12 59.5v244q0 36 12 59.5t31.5 37t42.5 18.5t46 5h12v-484zM230 507q0 36 12 59.5t31.5 37t42.5 18.5t46 5h12v-506q0 -36 -12 -59.5t-31.5 -37t-43 -18.5t-45.5 -5h-12v506zM539 383v-2q0 -69 -38 -104.5t-95 -37.5v144 h133z" />
<glyph unicode="5" horiz-adv-x="484" d="M224 322h-12q-23 0 -46 5t-42.5 18.5t-31.5 37t-12 59.5v164q0 36 12 59.5t31.5 37t42.5 18.5t46 5h12v-404zM272 416h12q22 0 45.5 -5t43 -18.5t31.5 -37t12 -59.5v-174q0 -36 -12 -59.5t-31.5 -37t-43 -18.5t-45.5 -5h-12v414zM55 95q0 31 12 50.5t29 30.5t36 14.5 t33 3.5q12 0 20 -2v-50q0 -37 29 -37q9 0 15 3t13 9q3 -8 3.5 -20t0.5 -19q0 -12 -4 -26t-13.5 -25.5t-26.5 -19.5t-43 -8q-27 0 -46.5 9t-32 22.5t-19 30.5t-6.5 34zM428 725q0 -43 -12 -74t-33.5 -52t-50.5 -32t-62 -13v171h158z" />
<glyph unicode="6" horiz-adv-x="466" d="M199 -1h-11q-23 0 -46.5 5t-42.5 18.5t-31.5 37t-12.5 60.5v486q0 36 12 59.5t31.5 37t42.5 18.5t46 5h12v-727zM248 386h12q22 0 45.5 -5t43 -18.5t31.5 -37t12 -59.5v-144q0 -36 -12 -59.5t-31.5 -37t-43 -18.5t-45.5 -5h-12v384zM411 627q0 -32 -12 -51t-29 -30 t-36 -14.5t-33 -3.5q-12 0 -20 2v50q0 37 -29 37q-9 0 -15 -3t-13 -9q-3 8 -3.5 20t-0.5 19q0 12 5 26.5t16 26.5t28.5 20.5t43.5 8.5q27 0 45.5 -9.5t30.5 -23.5t17 -32t5 -34z" />
<glyph unicode="7" horiz-adv-x="446" d="M247 726h12q22 0 45.5 -5t42.5 -18.5t31.5 -37t12.5 -59.5v-486q0 -37 -12.5 -60.5t-31.5 -37t-43 -18.5t-46 -5h-11v727zM35 627q0 16 5 34t16.5 32t30 23.5t44.5 9.5q27 0 45 -8t29 -20.5t16 -27t5 -26.5q0 -7 -0.5 -19t-3.5 -20q-7 6 -13 9t-15 3q-17 0 -23 -10.5 t-6 -30.5v-46q-8 -2 -21 -2q-14 0 -33 3.5t-36 14.5t-28.5 30t-11.5 51zM222 413v-144q-57 2 -95 37.5t-38 106.5h133z" />
<glyph unicode="8" horiz-adv-x="450" d="M251 366v207q0 23 -2.5 40.5t-16.5 17.5q-9 0 -12 -2.5t-10 -8.5v11q0 41 20 68t67 27q46 0 70 -29t24 -66v-149q0 -36 -15 -58.5t-36.5 -35.5t-46 -17.5t-42.5 -4.5zM198 360v-207q0 -23 2.5 -40.5t16.5 -17.5q9 0 12 2.5t10 8.5v-11q0 -41 -20 -68t-67 -27 q-46 0 -70 29t-24 66v149q0 36 15 58.5t36.5 35.5t46 17.5t42.5 4.5zM199 370h-11q-23 0 -46.5 5t-42.5 18.5t-31.5 37t-12.5 60.5v115q0 36 12 59.5t31.5 37t42.5 18.5t46 5h12v-356zM251 355h11q22 0 46 -5t43 -18.5t31.5 -37t12.5 -60.5v-115q0 -36 -12 -59.5t-31.5 -37 t-43 -18.5t-45.5 -5h-12v356z" />
<glyph unicode="9" horiz-adv-x="455" d="M206 366q-18 0 -42.5 3t-46 14t-36.5 32t-15 57v156q0 18 6.5 36t18.5 31.5t30 22t41 8.5q48 0 66.5 -26.5t18.5 -68.5v-11q-7 6 -10 8.5t-12 2.5q-14 0 -16.5 -17.5t-2.5 -40.5v-207zM50 95q0 31 12 50.5t29 30.5t36 14.5t33 3.5q12 0 20 -2v-50q0 -37 29 -37q9 0 15 3 t13 9q3 -8 3.5 -20t0.5 -19q0 -12 -4 -26t-13.5 -25.5t-26.5 -19.5t-43 -8q-27 0 -46.5 9t-32 22.5t-19 30.5t-6.5 34zM256 726h12q22 0 45.5 -5t43 -18.5t31.5 -37t12 -59.5v-486q0 -37 -12.5 -60.5t-31.5 -37t-43 -18.5t-46 -5h-11v727z" />
<glyph unicode=":" horiz-adv-x="254" d="M55 408q0 31 21 52t50 21q31 0 52 -21t21 -52q0 -29 -21 -50t-52 -21q-29 0 -50 21t-21 50zM55 64q0 31 21 52t50 21q31 0 52 -21t21 -52q0 -29 -21 -50t-52 -21q-29 0 -50 21t-21 50z" />
<glyph unicode=";" horiz-adv-x="254" d="M69 14q0 25 9 46t24 36t35 23t43 8v-176q0 -25 -9 -45.5t-24 -35.5t-35.5 -23.5t-42.5 -8.5v176zM55 298q0 31 21 52t50 21q31 0 52 -21t21 -52q0 -29 -21 -50t-52 -21q-29 0 -50 21t-21 50z" />
<glyph unicode="&#x3c;" horiz-adv-x="417" d="M184 425q56 59 105 59q43 0 86 -49l-170 -165l172 -167q-18 -22 -39.5 -35t-47.5 -13q-23 0 -49 13.5t-55 44.5l-151 158z" />
<glyph unicode="=" horiz-adv-x="506" d="M456 483q0 -23 -8.5 -45.5t-23.5 -40.5t-35.5 -29t-45.5 -11h-293q0 22 8.5 44.5t26.5 40.5t45 29.5t63 11.5h263zM456 286q0 -23 -8.5 -45.5t-23.5 -40.5t-35.5 -29t-45.5 -11h-293q0 22 8.5 44.5t26.5 40.5t45 29.5t63 11.5h263z" />
<glyph unicode="&#x3e;" horiz-adv-x="417" d="M382 271l-151 -158q-29 -31 -56 -44.5t-50 -13.5q-25 0 -46 13t-39 35l172 167l-170 165q43 49 86 49q48 0 105 -59z" />
<glyph unicode="?" horiz-adv-x="423" d="M174 473q-20 0 -43.5 6t-43.5 19.5t-33.5 36.5t-13.5 58v18q0 31 9 53t24.5 36t35 20t40.5 6q48 0 70 -28t22 -66v-9q0 -4 -1 -9q-12 15 -30 15q-14 -1 -21 -7.5t-10.5 -15t-4 -18.5t-0.5 -18v-97zM260 726h14q54 0 86.5 -28.5t32.5 -94.5v-37q0 -55 -31.5 -79.5 t-82.5 -24.5q-5 0 -9.5 0.5t-9.5 0.5v263zM255 230h-13q-54 0 -87.5 28t-33.5 85q0 31 12 52t30 33t39.5 17t40.5 5h12v-220zM143 67q0 31 21 52t50 21q31 0 52 -21t21 -52q0 -29 -21 -50t-52 -21q-29 0 -50 21t-21 50z" />
<glyph unicode="@" horiz-adv-x="816" d="M766 117q-2 -60 -28 -88.5t-81 -28.5h-89q-16 2 -32 5q-23 6 -42.5 19.5t-32 36t-12.5 57.5v234q0 12 -1.5 23t-6 19.5t-13 14t-23.5 5.5q-8 0 -16.5 -2.5t-15.5 -8.5q-4 8 -5 15.5t-1 15.5q0 32 27 53t65 21q60 0 92 -30.5t32 -87.5v-268h60v391q0 12 -1.5 23t-6 19.5 t-13 14t-23.5 5.5q-8 0 -16.5 -2.5t-15.5 -8.5q-4 8 -5 15.5t-1 15.5q0 32 24.5 53t62.5 21q60 0 89 -30.5t29 -87.5v-434zM173 513v-472q0 -12 1.5 -23t6 -19.5t13 -14t23.5 -5.5q8 0 16.5 2.5t15.5 8.5q4 -8 5 -15.5t1 -15.5q0 -32 -27 -53t-65 -21q-60 0 -86.5 30.5 t-26.5 87.5v548q0 57 30 87.5t87 30.5q38 0 63 -21t25 -53q0 -8 -1 -15.5t-5 -15.5q-7 6 -15.5 8.5t-16.5 2.5q-15 0 -23.5 -5.5t-13 -14t-6 -19.5t-1.5 -23zM355 156q0 -12 1.5 -23t6 -19.5t13 -14t23.5 -5.5q8 0 16.5 2.5t15.5 8.5q4 -8 5 -15.5t1 -15.5q0 -32 -27 -53 t-65 -21q-60 0 -92 32t-32 80v278q0 33 12.5 55.5t32 36.5t43 20t46.5 6v-352z" />
<glyph unicode="A" horiz-adv-x="485" d="M184 0q-26 0 -50 5t-42.5 18t-30 36t-11.5 60v487q0 34 14 57.5t35 37t46.5 19.5t48.5 6v-726h-10zM204 416h81q0 -41 -15 -68.5t-61 -27.5h-5v96zM292 559q0 11 -1.5 22.5t-6 21t-13 15.5t-23.5 6q-19 0 -32 -12q-6 16 -6 29q0 16 5.5 31.5t17.5 27.5t30.5 19.5 t45.5 7.5q30 0 53.5 -10.5t39.5 -29t24.5 -43t8.5 -52.5v-592q-27 0 -52.5 4t-46 16.5t-32.5 37.5t-12 67v434z" />
<glyph unicode="B" horiz-adv-x="463" d="M194 0h-10q-26 0 -50 5t-42.5 18t-30 36t-11.5 60v487q0 36 11 59t29 36.5t41 19t47 5.5h16v-726zM428 135q0 -63 -32.5 -99t-92.5 -36q-42 0 -67.5 20.5t-25.5 60.5q0 7 1.5 16.5t4.5 17.5q4 -12 16 -12t18 6t9 15.5t3.5 21t0.5 22.5v198q5 1 10.5 1.5t12.5 0.5 q19 0 44 -5.5t46.5 -19.5t36.5 -38.5t15 -61.5v-108zM428 504q0 -38 -15 -62t-36.5 -38t-46.5 -19.5t-44 -5.5q-7 0 -12.5 0.5t-10.5 1.5v177q0 11 -0.5 22.5t-3.5 21t-9 15.5t-18 6q-16 0 -19 -10q-3 13 -3 26t4 28t14.5 28t27.5 22t44 9q60 0 94 -39t34 -96v-87z" />
<glyph unicode="C" horiz-adv-x="438" d="M194 0h-10q-26 0 -50 5t-42.5 18t-30 36t-11.5 60v487q0 36 11 59t29 36.5t41 19t47 5.5h16v-726zM413 96q0 -17 -6 -34t-19 -30.5t-32 -22.5t-45 -9q-42 0 -70.5 23.5t-28.5 65.5q0 8 0.5 14.5t3.5 14.5q13 -12 32 -12q15 0 25 9.5t10 28.5v49q8 2 20 2q14 0 33 -3.5 t36 -14.5t29 -30.5t12 -50.5zM413 631q0 -32 -12 -51t-29 -30t-36 -14.5t-33 -3.5q-12 0 -20 2v46q0 18 -9 29.5t-26 11.5q-19 0 -32 -12q-3 8 -3.5 14.5t-0.5 14.5q0 12 4.5 27.5t15.5 29t29.5 23t47.5 9.5q21 0 40 -7t33 -20t22.5 -30.5t8.5 -38.5z" />
<glyph unicode="D" horiz-adv-x="485" d="M435 135q0 -63 -32 -99t-92 -36q-20 0 -38 5.5t-32 16.5t-22.5 27t-8.5 37q0 8 1.5 14.5t4.5 14.5q13 -12 32 -12q12 0 18.5 6t10.5 15.5t5 21t1 22.5v390q0 11 -1 22.5t-5 21t-10.5 15.5t-18.5 6q-19 0 -32 -12q-6 16 -6 29q0 16 5.5 31.5t17.5 27.5t30.5 19.5t45.5 7.5 q30 0 53.5 -10.5t39.5 -29t24.5 -43t8.5 -52.5v-456zM194 0h-10q-26 0 -50 5t-42.5 18t-30 36t-11.5 60v607h16q24 0 47 -5.5t41 -19t29 -36.5t11 -59v-606z" />
<glyph unicode="E" horiz-adv-x="438" d="M194 0h-10q-26 0 -50 5t-42.5 18t-30 36t-11.5 60v487q0 36 11 59t29 36.5t41 19t47 5.5h16v-726zM215 416h89q0 -23 -3.5 -42t-13 -33.5t-25.5 -22.5t-41 -8h-6v106zM413 96q0 -17 -6 -34t-19 -30.5t-32 -22.5t-45 -9q-19 0 -37 6.5t-31.5 18.5t-22 28t-8.5 36 q0 8 0.5 14.5t3.5 14.5q13 -12 32 -12q15 0 25 9.5t10 28.5v49q8 2 20 2q14 0 33 -3.5t36 -14.5t29 -30.5t12 -50.5zM413 631q0 -32 -12 -51t-29 -30t-36 -14.5t-33 -3.5q-12 0 -20 2v46q0 20 -9.5 30.5t-25.5 10.5q-19 0 -32 -12q-3 8 -3.5 14.5t-0.5 14.5q0 12 5.5 27.5 t17 29t30 23t44.5 9.5q21 0 40 -7t33 -20t22.5 -30.5t8.5 -38.5z" />
<glyph unicode="F" horiz-adv-x="418" d="M194 0h-10q-26 0 -50 5t-42.5 18t-30 36t-11.5 60v487q0 36 11 59t29 36.5t41 19t47 5.5h16v-726zM215 416h89q0 -23 -3.5 -42t-13 -33.5t-25.5 -22.5t-41 -8h-6v106zM413 631q0 -32 -12 -51t-29 -30t-36 -14.5t-33 -3.5q-12 0 -20 2v46q0 18 -9 29.5t-26 11.5 q-19 0 -32 -12q-3 8 -3.5 14.5t-0.5 14.5q0 14 5.5 30t17 29t30 21.5t44.5 8.5q21 0 40 -7t33 -20t22.5 -30.5t8.5 -38.5z" />
<glyph unicode="G" horiz-adv-x="451" d="M194 0h-10q-26 0 -50 5t-42.5 18t-30 36t-11.5 60v487q0 36 11 59t29 36.5t41 19t47 5.5h16v-726zM409 123q0 -38 -12.5 -62t-31 -37.5t-40 -18.5t-39.5 -5h-22v204q0 21 -3 39.5t-20 18.5q-9 0 -14 -2t-10 -7l-3 11q-3 10 -3 30q0 29 23 53t68 24q50 0 79 -31.5 t28 -94.5v-122zM412 631q0 -32 -12 -51t-29 -30t-36 -14.5t-33 -3.5q-12 0 -20 2v46q0 21 -10 31t-25 10q-19 0 -32 -12q-3 8 -3.5 14.5t-0.5 14.5q0 12 5.5 27.5t17 29t30 23t44.5 9.5q27 0 46.5 -9t32 -22.5t19 -31t6.5 -33.5z" />
<glyph unicode="H" horiz-adv-x="491" d="M50 726h16q24 0 47 -5.5t41 -19t29 -36.5t11 -59v-487q0 -37 -11.5 -60t-30 -36t-43 -18t-49.5 -5h-10v726zM297 726h16q24 0 47 -5.5t41 -19t29 -36.5t11 -59v-487q0 -37 -11.5 -60t-30 -36t-43 -18t-49.5 -5h-10v726zM206 416h91q-4 -21 -9 -38.5t-14.5 -30t-24.5 -20 t-38 -7.5h-5v96z" />
<glyph unicode="I" horiz-adv-x="244" d="M194 0h-10q-26 0 -50 5t-42.5 18t-30 36t-11.5 60v607h16q24 0 47 -5.5t41 -19t29 -36.5t11 -59v-606z" />
<glyph unicode="J" horiz-adv-x="343" d="M164 726h16q24 0 47 -5.5t41 -19t29 -36.5t11 -59v-347q0 -37 -11.5 -60t-30 -36t-43 -18t-49.5 -5h-10v586zM5 96q0 31 12 50.5t29 30.5t36 14.5t33 3.5q12 0 20 -2v-46q0 -21 10 -31t25 -10q18 0 32 12q3 -8 3.5 -14.5t0.5 -14.5q0 -12 -5.5 -27.5t-17 -29t-30 -23 t-44.5 -9.5q-27 0 -46.5 9t-32 22.5t-19 30.5t-6.5 34z" />
<glyph unicode="K" horiz-adv-x="442" d="M55 726h16q24 0 47 -5.5t41 -19t29 -36.5t11 -59v-487q0 -37 -11.5 -60t-30 -36t-43 -18t-49.5 -5h-10v726zM397 0h-10q-26 0 -51.5 5t-46 18t-33.5 36t-13 60v242h16q25 0 50 -5.5t44.5 -19t31.5 -36.5t12 -59v-241zM407 507q0 -60 -25 -97.5t-80 -37.5q-20 0 -36 6.5 t-27 16.5t-17 23t-6 25t1 19t2 12q5 -6 9.5 -9t12.5 -3q14 1 17 11.5t3 25.5v226h13q21 0 44 -4t43 -16.5t33 -37t13 -65.5v-95z" />
<glyph unicode="L" horiz-adv-x="433" d="M194 0h-10q-26 0 -50 5t-42.5 18t-30 36t-11.5 60v607h16q24 0 47 -5.5t41 -19t29 -36.5t11 -59v-606zM413 96q0 -17 -6.5 -34t-19 -30.5t-32 -22.5t-44.5 -9h-4q-27 0 -45 9.5t-29.5 23t-16 29t-4.5 27.5q0 8 0.5 14.5t3.5 14.5q13 -12 32 -12q15 0 25 9.5t10 28.5v49 q2 1 13.5 1.5t18.5 0.5q11 0 28 -3.5t32.5 -14.5t26.5 -30.5t11 -50.5z" />
<glyph unicode="M" horiz-adv-x="724" d="M291 559q0 11 -1.5 22.5t-6 21t-13 15.5t-23.5 6q-19 0 -32 -12q-6 16 -6 29q0 16 5.5 31.5t17.5 27.5t30.5 19.5t45.5 7.5q60 0 93 -36t33 -99v-592q-27 0 -52.5 4t-46 16.5t-32.5 37.5t-12 67v434zM194 0h-10q-26 0 -50 5t-42.5 18t-30 36t-11.5 60v607h16 q24 0 47 -5.5t41 -19t29 -36.5t11 -59v-606zM531 559q0 11 -1.5 22.5t-6 21t-13 15.5t-23.5 6q-19 0 -32 -12q-6 16 -6 29q0 16 5.5 31.5t17.5 27.5t30.5 19.5t45.5 7.5q60 0 93 -36t33 -99v-592q-27 0 -52.5 4t-46 16.5t-32.5 37.5t-12 67v434z" />
<glyph unicode="N" horiz-adv-x="484" d="M291 559q0 11 -1.5 22.5t-6 21t-13 15.5t-23.5 6q-19 0 -32 -12q-6 16 -6 29q0 16 5.5 31.5t17.5 27.5t30.5 19.5t45.5 7.5q60 0 93 -36t33 -99v-592q-27 0 -52.5 4t-46 16.5t-32.5 37.5t-12 67v434zM194 0h-10q-26 0 -50 5t-42.5 18t-30 36t-11.5 60v607h16 q24 0 47 -5.5t41 -19t29 -36.5t11 -59v-606z" />
<glyph unicode="O" horiz-adv-x="484" d="M291 559q0 11 -1.5 22.5t-6 21t-13 15.5t-23.5 6q-19 0 -32 -12q-6 16 -6 29q0 16 5.5 31.5t17.5 27.5t30.5 19.5t45.5 7.5q60 0 93 -36t33 -99v-467q0 -42 -12 -67t-32.5 -37.5t-46 -16.5t-52.5 -4v559zM193 169q0 -11 1.5 -22.5t6 -21t13 -15.5t23.5 -6q18 0 32 12 q3 -8 4.5 -14.5t1.5 -14.5q0 -16 -5.5 -31.5t-17.5 -27.5t-30.5 -19.5t-45.5 -7.5q-60 0 -93 36t-33 99v467q0 42 12 67t32.5 37.5t46 16.5t52.5 4v-559z" />
<glyph unicode="P" horiz-adv-x="446" d="M194 120q0 -35 -14 -58t-35 -36.5t-46.5 -19.5t-48.5 -6v589q0 66 30 102t87 36q28 0 48 -9.5t32 -24.5t17.5 -34.5t5.5 -40.5v-10q-7 6 -15.5 8.5t-16.5 2.5q-15 0 -23.5 -5.5t-13 -14t-6 -19.5t-1.5 -23v-437zM282 725q5 0 8.5 0.5t8.5 0.5q61 0 94 -33t33 -106v-179 q0 -33 -9.5 -58t-25 -42.5t-37 -26.5t-45.5 -9q-31 0 -51 10t-31.5 26.5t-16 37.5t-4.5 42q14 -8 32 -8q15 0 23.5 5.5t13 14t6 19.5t1.5 23v283z" />
<glyph unicode="Q" horiz-adv-x="489" d="M296 559q0 11 -1.5 22.5t-6 21t-13 15.5t-23.5 6q-19 0 -32 -12q-6 16 -6 29q0 16 5.5 31.5t17.5 27.5t30.5 19.5t45.5 7.5q60 0 93 -36t33 -99v-467q0 -42 -12 -67t-32.5 -37.5t-46 -16.5t-52.5 -4v559zM198 169q0 -11 1.5 -22.5t6 -21t13 -15.5t23.5 -6q18 0 32 12 q3 -8 4.5 -14.5t1.5 -14.5q0 -16 -5.5 -31.5t-17.5 -27.5t-30.5 -19.5t-45.5 -7.5q-60 0 -93 36t-33 99v467q0 42 12 67t32.5 37.5t46 16.5t52.5 4v-559zM166 -104q0 31 12 50.5t29 30.5t36 14.5t33 3.5q12 0 20 -2v-46q0 -21 10 -31t25 -10q18 0 32 12q3 -8 3.5 -14.5 t0.5 -14.5q0 -12 -5.5 -27.5t-17 -29t-30 -23t-44.5 -9.5q-27 0 -46.5 9t-32 22.5t-19 30.5t-6.5 34z" />
<glyph unicode="R" horiz-adv-x="466" d="M194 120q0 -35 -14 -58t-35 -36.5t-46.5 -19.5t-48.5 -6v581q0 70 32 108t92 38q30 0 49 -10t29.5 -26t14.5 -34.5t4 -35.5q0 -9 -2 -13q-13 11 -31 11q-15 0 -23.5 -5.5t-13 -14t-6 -19.5t-1.5 -23v-437zM282 725h13q57 0 94 -35.5t37 -102.5v-105q0 -66 -32.5 -100 t-78.5 -36h-7q-28 0 -47 10t-30.5 25.5t-16.5 34t-5 36.5q7 -6 13 -8.5t24 -2.5q13 0 20.5 7.5t11 18.5t4 24.5t0.5 24.5v209zM410 0h-10q-26 0 -51.5 5t-46 18t-33.5 36t-13 60v212h16q25 0 50 -5.5t44.5 -19t31.5 -36.5t12 -59v-211z" />
<glyph unicode="S" horiz-adv-x="446" d="M196 320h-12q-23 0 -46 5t-42.5 18.5t-31.5 37t-12 59.5v166q0 36 12 59.5t31.5 37t42.5 18.5t46 5h12v-406zM45 96q0 31 12 50.5t29 30.5t36 14.5t33 3.5q12 0 20 -2v-50q0 -37 29 -37q9 0 15 3t13 9q3 -8 3.5 -20t0.5 -19q0 -12 -4 -26t-13.5 -25.5t-26.5 -19.5t-43 -8 q-27 0 -46.5 9t-32 22.5t-19 30.5t-6.5 34zM252 405h12q22 0 45.5 -5t43 -18.5t31.5 -37t12 -59.5v-166q0 -36 -12 -59.5t-31.5 -37t-43 -18.5t-45.5 -5h-12v406zM401 630q0 -32 -12 -51t-29 -30t-36 -14.5t-33 -3.5q-12 0 -20 2v50q0 37 -29 37q-9 0 -15 -3t-13 -9 q-3 8 -3.5 20t-0.5 19q0 12 4 26t13.5 25.5t26.5 19.5t43 8q27 0 46.5 -9t32 -22.5t19 -31t6.5 -33.5z" />
<glyph unicode="T" horiz-adv-x="587" d="M365 0h-10q-26 0 -50 5t-42.5 18t-30 36t-11.5 60v607h16q24 0 47 -5.5t41 -19t29 -36.5t11 -59v-606zM5 627q0 17 6 34t19 31t32 22.5t45 8.5q27 0 46 -9.5t30.5 -23t17 -29t5.5 -27.5q0 -8 -0.5 -14.5t-3.5 -14.5q-14 12 -32 12q-15 0 -25 -9.5t-10 -28.5v-49 q-8 -2 -20 -2q-14 0 -33 3.5t-36 14.5t-29 30t-12 51zM582 627q0 -32 -12 -51t-29 -30t-36 -14.5t-33 -3.5q-12 0 -20 2v46q0 21 -10 31t-25 10q-19 0 -32 -12q-3 8 -3.5 14.5t-0.5 14.5q0 12 5.5 27.5t17 29t30 23t44.5 9.5q27 0 46.5 -9t32 -22.5t19 -31t6.5 -33.5z" />
<glyph unicode="U" horiz-adv-x="485" d="M193 169q0 -11 1.5 -22.5t6 -21t13 -15.5t23.5 -6q18 0 32 12q3 -8 4.5 -14.5t1.5 -14.5q0 -16 -5.5 -31.5t-17.5 -27.5t-30.5 -19.5t-45.5 -7.5q-60 0 -93 36t-33 99v592q27 0 52.5 -4t46 -16.5t32.5 -37.5t12 -67v-434zM435 0h-10q-26 0 -50 5t-42.5 18t-30 36 t-11.5 60v607h16q24 0 47 -5.5t41 -19t29 -36.5t11 -59v-606z" />
<glyph unicode="V" horiz-adv-x="480" d="M193 169q0 -11 1.5 -22.5t6 -21t13 -15.5t23.5 -6q18 0 32 12q3 -8 4.5 -14.5t1.5 -14.5q0 -16 -5.5 -31.5t-17.5 -27.5t-30.5 -19.5t-45.5 -7.5q-60 0 -93 36t-33 99v592q27 0 52.5 -4t46 -16.5t32.5 -37.5t12 -67v-434zM291 726h16q24 0 47 -5.5t41 -19t29 -36.5 t11 -59v-333q0 -48 -11 -80t-30 -50.5t-44 -26.5t-53 -8h-6v618z" />
<glyph unicode="W" horiz-adv-x="722" d="M436 169q0 -11 1 -22.5t5.5 -21t13 -15.5t23.5 -6q18 0 32 12q3 -8 4.5 -14.5t1.5 -14.5q0 -16 -5.5 -31.5t-17.5 -27.5t-30.5 -19.5t-45.5 -7.5q-60 0 -93 36t-33 99v470q0 36 11 59t29 36.5t41.5 19t47.5 5.5h16zM175 1q-60 0 -92.5 36t-32.5 99v470q0 36 11 59 t29 36.5t41 19t47 5.5h16v-557q0 -11 1.5 -22.5t6 -21t13 -15.5t23.5 -6q18 0 32 12q3 -8 4.5 -14.5t1.5 -14.5q0 -15 -5.5 -30.5t-17.5 -28t-31.5 -20t-46.5 -7.5zM677 273q0 -48 -11 -80t-30 -50.5t-44 -26.5t-53 -8h-6v498q0 36 11 59t29 36.5t41 19t47 5.5h16v-453z" />
<glyph unicode="X" horiz-adv-x="466" d="M40 231q0 34 9 60t25 43.5t36 26.5t43 9q25 0 43 -7.5t28.5 -19.5t15.5 -26t5 -26q0 -6 -1.5 -15t-4.5 -17q-9 11 -23 11q-19 0 -25.5 -14.5t-6.5 -36.5v-219h-4q-22 0 -46.5 5t-45.5 18t-34.5 36.5t-13.5 59.5v112zM426 500q0 -34 -9.5 -59.5t-26 -43t-37.5 -26 t-44 -8.5q-25 0 -42 7.5t-27 19t-14.5 25t-4.5 25.5q0 6 1.5 15t4.5 17q7 -6 12.5 -8t14.5 -3q10 0 15.5 5.5t8.5 13t3.5 16.5t0.5 16v214h4q22 0 46.5 -5t45.5 -18t34.5 -36.5t13.5 -59.5v-107zM204 379h-10q-26 0 -50 5t-42.5 18t-30 36t-11.5 60v228h16q24 0 47 -5.5 t41 -19t29 -36.5t11 -59v-227zM410 0h-10q-26 0 -50 5t-42.5 18t-30 36t-11.5 60v228h16q24 0 47 -5.5t41 -19t29 -36.5t11 -59v-227z" />
<glyph unicode="Y" horiz-adv-x="476" d="M287 726h16q24 0 47 -5.5t41 -19t29 -36.5t11 -59v-336q0 -35 -10 -59.5t-26.5 -40.5t-38 -23.5t-45.5 -7.5q-6 0 -12 0.5t-12 1.5v585zM160 280q-23 0 -43.5 8.5t-36.5 25t-25.5 41t-9.5 57.5v314h21q61 0 92 -32.5t31 -105.5v-142q0 -12 1.5 -23t6 -19.5t13 -14 t23.5 -5.5q8 0 16.5 2.5t15.5 8.5q0 -23 -6 -43.5t-19 -36.5t-33 -25.5t-47 -9.5zM120 95q0 31 11 50.5t27.5 30.5t35 14.5t32.5 3.5q7 0 14.5 -0.5t9.5 -1.5v-46q0 -21 10 -31t25 -10q18 0 32 12q3 -8 3.5 -14.5t0.5 -14.5q0 -12 -5.5 -27.5t-17 -29t-30 -23t-44.5 -9.5 q-27 0 -46.5 9t-32 22.5t-19 30.5t-6.5 34z" />
<glyph unicode="Z" horiz-adv-x="450" d="M250 726h12q22 0 45.5 -5t43 -18.5t31.5 -37t12 -59.5v-166q0 -36 -12 -59.5t-31.5 -37t-43 -18.5t-45.5 -5h-12v406zM405 96q0 -17 -6 -34t-18.5 -31t-31 -22.5t-42.5 -8.5q-27 0 -44.5 8t-28.5 19.5t-15.5 25.5t-4.5 26q0 7 0.5 19t3.5 20q7 -6 13 -9t15 -3q29 0 29 37 v50q8 2 20 2q14 0 33 -3.5t36 -14.5t29 -30.5t12 -50.5zM198 0h-12q-23 0 -46 5t-42.5 18t-31.5 36.5t-12 59.5v166q0 36 12 59.5t31.5 37t42.5 18.5t46 5h12v-405zM45 630q0 17 6 34t18 31t30.5 22.5t44.5 8.5t43.5 -8t28.5 -19.5t15.5 -25.5t4.5 -26q0 -7 -0.5 -19 t-3.5 -20q-7 6 -13 9t-15 3q-29 0 -29 -37v-50q-8 -2 -20 -2q-14 0 -33 3.5t-36 14.5t-29 30t-12 51z" />
<glyph unicode="[" horiz-adv-x="355" d="M60 762h285q0 -23 -5.5 -45.5t-18.5 -40.5t-35 -29t-54 -11h-46v-724h46q32 0 54 -11.5t35 -29.5t18.5 -40.5t5.5 -44.5h-285v976z" />
<glyph unicode="\" horiz-adv-x="426" d="M194 366h-12q-23 0 -46 5t-42.5 18.5t-31.5 37t-12 59.5v156q0 36 12 59.5t31.5 37t42.5 18.5t46 5h12v-396zM232 396h12q22 0 45.5 -5t43 -18.5t31.5 -37t12 -59.5v-156q0 -36 -12 -59.5t-31.5 -37t-43 -18.5t-45.5 -5h-12v396z" />
<glyph unicode="]" horiz-adv-x="355" d="M295 763v-977h-285q0 22 5.5 44.5t18.5 40.5t35 29.5t54 11.5h47q-1 5 -1 17v707h-46q-32 0 -54 11t-35 29t-18.5 40.5t-5.5 45.5h267q5 0 9 0.5t9 0.5z" />
<glyph unicode="^" horiz-adv-x="531" d="M264 764l158 -151q31 -29 44.5 -56t13.5 -50q0 -25 -13 -46t-35 -39l-167 172l-165 -170q-49 43 -49 86q0 48 59 105z" />
<glyph unicode="_" horiz-adv-x="649" d="M589 -93q0 -23 -5.5 -45.5t-18.5 -40.5t-35 -29t-54 -11h-416q0 22 7.5 44.5t24 40.5t44 29.5t67.5 11.5h386z" />
<glyph unicode="`" horiz-adv-x="309" d="M168 566q-36 0 -57 13.5t-31 34.5t-12.5 46t-2.5 48h76q36 0 56.5 -14t31 -35t13 -46t2.5 -47h-76z" />
<glyph unicode="a" d="M273 352q0 12 -1.5 23t-6 19.5t-13 14t-23.5 5.5q-8 0 -16.5 -2.5t-15.5 -8.5q-4 8 -5 15.5t-1 15.5q0 32 27 53t65 21q60 0 92 -30.5t32 -87.5v-390q-23 0 -46.5 5.5t-43 19t-32 36t-12.5 57.5v234zM179 156q0 -12 1.5 -23t6 -19.5t13 -14t23.5 -5.5q8 0 16.5 2.5 t15.5 8.5q4 -8 5 -15.5t1 -15.5q0 -32 -27 -53t-65 -21q-60 0 -92 32t-32 80v278q0 33 12.5 55.5t32 36.5t43 20t46.5 6v-352z" />
<glyph unicode="b" d="M179 0h-11q-26 0 -48.5 8t-39 22t-26 34t-9.5 44v492q0 37 9.5 61.5t26 38.5t38.5 20t48 6h12v-726zM407 132q0 -69 -32 -100.5t-92 -31.5q-38 0 -65 21t-27 53q0 17 7 31q13 -11 31 -11q20 0 32 16t12 49v201q0 22 -8.5 37t-31.5 17h-4q-18 0 -32 -11q-4 8 -5 15.5 t-1 15.5q0 32 27 53t65 21q60 0 92 -31t32 -79v-266z" />
<glyph unicode="c" horiz-adv-x="436" d="M179 0h-9q-23 0 -45.5 5.5t-40 19t-28.5 35.5t-11 54v276q0 36 12 59t31 36t43 18t48 5v-508zM400 409q0 -15 -4.5 -31t-15.5 -29t-28.5 -21t-43.5 -8q-21 0 -36 4v34q0 22 -8 37t-31 17q-11 0 -18.5 -3.5t-14.5 -8.5q-7 14 -7 32q0 30 26 53t72 23h7q17 -1 35 -7t33 -18 t24.5 -30.5t9.5 -43.5zM400 97q0 -24 -9.5 -42t-24.5 -30t-33 -18t-35 -7h-7q-46 0 -72 23t-26 53q0 18 7 32q13 -12 30 -12q25 2 33.5 17t8.5 37v34q15 4 36 4q26 0 43.5 -8t28.5 -21t15.5 -29.5t4.5 -32.5z" />
<glyph unicode="d" d="M273 726h12q25 0 47.5 -6t39 -20t26 -38.5t9.5 -61.5v-492q0 -24 -9.5 -44t-26 -34t-39 -22t-48.5 -8h-11v726zM45 398q0 48 32 79t92 31q38 0 65 -21t27 -53q0 -8 -1 -15.5t-5 -15.5q-14 11 -32 11h-4q-23 -2 -31.5 -17t-8.5 -37v-201q0 -33 12 -49t32 -16q18 0 31 11 q7 -14 7 -31q0 -32 -27 -53t-65 -21q-60 0 -92 31.5t-32 100.5v266z" />
<glyph unicode="e" horiz-adv-x="442" d="M179 0h-10q-23 0 -45 5.5t-39.5 19t-28.5 35.5t-11 54v269q0 55 26.5 90t86.5 35q40 0 66 -20.5t26 -65.5q0 -15 -4 -22q-14 12 -30 12q-22 0 -29.5 -15t-7.5 -32v-365zM268 507q5 1 10 1h10q54 0 84 -27.5t30 -78.5v-55q0 -68 -34 -101t-83 -33h-7q-38 2 -61.5 25.5 t-23.5 56.5q0 5 0.5 9t3.5 12q8 -8 14 -12t20 -4q23 0 30 16.5t7 38.5v152zM398 97q0 -28 -9.5 -46.5t-24.5 -30t-33 -16t-35 -4.5q-51 0 -72 25t-21 56q0 5 0.5 12t4.5 15q13 -12 30 -12q24 2 28 16t4 35v37q15 4 36 4q26 0 43.5 -8t28.5 -21t15.5 -29.5t4.5 -32.5z" />
<glyph unicode="f" horiz-adv-x="306" d="M199 504h89q0 -23 -3.5 -42t-13 -33.5t-25.5 -22.5t-41 -8h-6v106zM45 510q0 36 9.5 60t26 38.5t39.5 21t49 6.5h10v-528q0 -24 -9.5 -44t-26 -34t-39 -22t-48.5 -8h-11v510zM331 671q0 -19 -5.5 -36.5t-16.5 -30.5t-29 -21t-42 -8q-21 0 -36 4v34q0 22 -7.5 38t-28.5 16 q-8 0 -13 -2t-13 -7q-2 6 -2.5 13t-0.5 21q1 11 6.5 23.5t16.5 23t28.5 17.5t42.5 7q43 0 71.5 -26t28.5 -66z" />
<glyph unicode="g" d="M179 156q0 -12 1.5 -23t6 -19.5t13 -14t23.5 -5.5q8 0 16.5 2.5t15.5 8.5q4 -8 5 -15.5t1 -15.5q0 -32 -27 -53t-65 -21q-60 0 -92 32t-32 80v278q0 33 12.5 55.5t32 36.5t43 20t46.5 6v-352zM273 352q0 12 -1.5 23t-6 19.5t-13 14t-23.5 5.5q-8 0 -16.5 -2.5t-15.5 -8.5 q-4 8 -5 15.5t-1 15.5q0 32 27 53t65 21q60 0 92 -30.5t32 -87.5v-411q0 -26 -11.5 -47.5t-30.5 -37.5t-43 -25t-49 -9v492zM111 -178q0 31 12 50.5t29 30.5t36 14.5t33 3.5q12 0 20 -2v-46q0 -21 10 -31t25 -10q18 0 32 12q3 -8 3.5 -14.5t0.5 -14.5q0 -12 -5.5 -27.5 t-17 -29t-30 -23t-44.5 -9.5q-27 0 -46.5 9t-32 22.5t-19 30.5t-6.5 34z" />
<glyph unicode="h" d="M45 726h11q52 0 87.5 -28t35.5 -89v-609h-6q-23 0 -45.5 6t-41 19.5t-30 35t-11.5 53.5v612zM273 352q0 12 -1.5 23t-6 19.5t-13 14t-23.5 5.5q-8 0 -16.5 -2.5t-15.5 -8.5q-4 8 -5 15.5t-1 15.5q0 32 27 53t65 21q60 0 92 -30.5t32 -87.5v-390q-23 0 -46.5 5.5t-43 19 t-32 36t-12.5 57.5v234z" />
<glyph unicode="i" horiz-adv-x="246" d="M40 662q0 34 24 57.5t57 23.5t56.5 -23.5t23.5 -57.5t-23.5 -57t-56.5 -23t-57 23t-24 57zM55 508h11q52 0 87.5 -28t35.5 -89v-391h-6q-23 0 -45.5 6t-41 19.5t-30 35t-11.5 53.5v394z" />
<glyph unicode="j" horiz-adv-x="265" d="M74 508h12q53 0 87.5 -27.5t34.5 -89.5v-407q0 -34 -10.5 -57t-27.5 -37.5t-39 -20.5t-45 -6h-12v645zM59 662q0 34 24 57.5t57 23.5t56.5 -23.5t23.5 -57.5t-23.5 -57t-56.5 -23t-57 23t-24 57zM-80 -173q0 31 12 50.5t29 30.5t36 14.5t33 3.5q12 0 20 -2v-46 q0 -21 10 -31t25 -10q18 0 32 12q3 -8 3.5 -14.5t0.5 -14.5q0 -12 -5.5 -27.5t-17 -29t-30 -23t-44.5 -9.5q-27 0 -46.5 9t-32 22.5t-19 30.5t-6.5 34z" />
<glyph unicode="k" horiz-adv-x="421" d="M220 275q28 0 55 -7.5t47 -23.5t32.5 -41.5t12.5 -61.5v-148q-25 0 -51 8.5t-47.5 24.5t-35 39.5t-13.5 53.5v156zM242 528q13 0 36 -4.5t44.5 -17.5t37.5 -36t16 -60q0 -24 -5.5 -46t-16.5 -38.5t-29.5 -26.5t-43.5 -10q-41 0 -59.5 25.5t-18.5 59.5v11q4 -5 6.5 -7.5 t10.5 -2.5q14 0 18 13.5t4 40.5v99zM45 726h11q52 0 87.5 -28t35.5 -89v-609q-4 0 -7 -0.5t-7 -0.5q-22 0 -43.5 6t-38.5 20t-27.5 36.5t-10.5 55.5v609z" />
<glyph unicode="l" horiz-adv-x="224" d="M45 726h11q52 0 87.5 -28t35.5 -89v-609h-6q-23 0 -45.5 6t-41 19.5t-30 35t-11.5 53.5v612z" />
<glyph unicode="m" horiz-adv-x="680" d="M273 352q0 12 -1.5 23t-6 19.5t-13 14t-23.5 5.5q-8 0 -16.5 -2.5t-15.5 -8.5q-3 6 -3.5 11.5t-0.5 10.5v9q0 32 28 53t73 21q54 0 83.5 -32.5t29.5 -95.5v-380h-6q-60 0 -94 28.5t-34 91.5v232zM45 508h11q52 0 87.5 -28t35.5 -89v-391h-6q-23 0 -45.5 6t-41 19.5 t-30 35t-11.5 53.5v394zM501 352q0 12 -1.5 23t-6 19.5t-13 14t-23.5 5.5q-8 0 -16.5 -2.5t-15.5 -8.5q-4 8 -4 18q0 35 24 61t72 26q57 0 87.5 -32.5t30.5 -95.5v-380h-6q-60 0 -94 28.5t-34 91.5v232z" />
<glyph unicode="n" d="M273 352q0 12 -1.5 23t-6 19.5t-13 14t-23.5 5.5q-8 0 -16.5 -2.5t-15.5 -8.5q-4 8 -5 15.5t-1 15.5q0 32 29 53t74 21q54 0 83.5 -32.5t29.5 -95.5v-380h-6q-60 0 -94 28.5t-34 91.5v232zM45 508h11q52 0 87.5 -28t35.5 -89v-391h-6q-23 0 -45.5 6t-41 19.5t-30 35 t-11.5 53.5v394z" />
<glyph unicode="o" d="M179 156q0 -12 1.5 -23t6 -19.5t13 -14t23.5 -5.5q8 0 16.5 2.5t15.5 8.5q4 -8 5 -15.5t1 -15.5q0 -32 -27 -53t-65 -21q-60 0 -92 32t-32 80v278q0 33 12.5 55.5t32 36.5t43 20t46.5 6v-352zM407 118q0 -35 -12.5 -57.5t-32 -36t-43.5 -19t-46 -5.5v352q0 12 -1.5 23 t-6 19.5t-13 14t-23.5 5.5q-8 0 -16.5 -2.5t-15.5 -8.5q-4 8 -5 15.5t-1 15.5q0 32 27 53t65 21q60 0 92 -30.5t32 -87.5v-272z" />
<glyph unicode="p" d="M273 508q22 0 46 -6t43.5 -20t32 -36.5t12.5 -55.5v-268q0 -57 -30 -89.5t-87 -32.5q-19 0 -36.5 5.5t-31 15t-21.5 23t-8 29.5q0 6 0.5 15t3.5 17q14 -13 37 -13q26 0 32.5 19.5t6.5 44.5v352zM45 390q0 57 32 88t92 31q39 0 64 -22t25 -52q0 -9 -0.5 -17.5t-4.5 -16.5 q-14 13 -30 13q-15 0 -23.5 -5.5t-13 -14t-6 -19.5t-1.5 -23v-601q-23 0 -46.5 5.5t-43 19t-32 36t-12.5 57.5v521z" />
<glyph unicode="q" d="M179 156q0 -12 1.5 -23t6 -19.5t13 -14t23.5 -5.5q8 0 16.5 2.5t15.5 8.5q4 -8 4.5 -15.5t0.5 -15.5q0 -32 -26.5 -53t-64.5 -21q-60 0 -92 32t-32 80v278q0 33 12.5 55.5t32 36.5t43 20t46.5 6v-352zM407 -131q0 -35 -12.5 -57.5t-32 -36t-43.5 -19t-46 -5.5v601 q0 12 -1.5 23t-6 19.5t-13 14t-23.5 5.5q-8 0 -16.5 -2.5t-15.5 -8.5q-4 8 -4.5 15.5t-0.5 15.5q0 32 26 53t65 21q60 0 92 -30.5t32 -87.5v-521z" />
<glyph unicode="r" horiz-adv-x="382" d="M45 508h11q52 0 87.5 -28t35.5 -89v-391h-6q-23 0 -45.5 6t-41 19.5t-30 35t-11.5 53.5v394zM376 420q0 -28 -11 -45t-26.5 -26.5t-33.5 -12.5t-31 -3q-14 0 -24 2v36q0 23 -7.5 29t-18.5 6q-10 0 -15.5 -4t-12.5 -12q-3 8 -3.5 16.5t-0.5 16.5q0 13 4.5 28t15 27.5 t27.5 21t43 8.5q48 0 71 -25.5t23 -62.5z" />
<glyph unicode="s" horiz-adv-x="423" d="M169 250h-9q-23 0 -45.5 5.5t-40 19t-28.5 35.5t-11 54v26q0 36 12 59t31 36t43 18t48 5v-258zM254 258h9q23 0 45.5 -5.5t40 -19t28.5 -35.5t11 -54v-26q0 -36 -12 -59t-31 -36t-43 -18t-48 -5v258zM384 420q0 -32 -12 -51t-29 -30t-36 -14.5t-33 -3.5q-12 0 -20 2v46 q0 21 -10 31t-25 10q-19 0 -32 -12q-3 8 -3.5 14.5t-0.5 14.5q0 12 4 27.5t15 29t30 23t48 9.5q27 0 46.5 -8.5t32 -22.5t19 -31t6.5 -34zM40 96q0 31 12 50.5t29 30.5t36 14.5t33 3.5q12 0 20 -2v-46q0 -21 10 -31t25 -10q18 0 32 12q3 -8 3.5 -14.5t0.5 -14.5 q0 -12 -4.5 -27.5t-16 -29t-30 -23t-46.5 -9.5q-27 0 -46.5 8.5t-32 22.5t-19 31t-6.5 34z" />
<glyph unicode="t" horiz-adv-x="288" d="M179 153q0 -10 0.5 -21t4 -20t10.5 -15t20 -6q16 0 24.5 8.5t12.5 14.5q2 -6 3.5 -18t1.5 -20q0 -38 -25.5 -57t-67.5 -19q-55 0 -86.5 34t-31.5 112v459q0 25 6.5 47t20.5 38.5t36.5 26t54.5 9.5q4 0 8 -0.5t8 -0.5v-572zM196 503h2q2 0 9 0.5t22 0.5h45q1 -3 1 -15 q0 -38 -18 -59.5t-61 -21.5v95z" />
<glyph unicode="u" d="M179 158q0 -12 1.5 -23t6 -19.5t13 -14t23.5 -5.5q8 0 16.5 2.5t15.5 8.5q4 -8 5 -15.5t1 -15.5q0 -32 -26 -54t-71 -22q-54 0 -86.5 32t-32.5 98v377h6q60 0 94 -28.5t34 -91.5v-229zM407 2h-11q-52 0 -87.5 27.5t-35.5 89.5v388h6q22 0 45 -6t41.5 -19.5t30 -35.5 t11.5 -53v-391z" />
<glyph unicode="v" d="M179 158q0 -12 1.5 -23t6 -19.5t13 -14t23.5 -5.5q8 0 16.5 2.5t15.5 8.5q4 -8 5 -15.5t1 -15.5q0 -32 -29 -53t-74 -21q-54 0 -83.5 32.5t-29.5 95.5v377q5 1 9 1h9q54 0 85 -29t31 -89v-232zM273 393q0 31 11 53t29 36t41 20t47 6h6v-279q0 -81 -34 -115t-100 -34v313z " />
<glyph unicode="w" horiz-adv-x="681" d="M158 2q-54 0 -83.5 32.5t-29.5 95.5v260q0 59 30.5 88.5t85.5 29.5q5 0 9 -0.5t9 -0.5v-349q0 -12 1.5 -23t6 -19.5t13 -14t23.5 -5.5q8 0 16.5 2.5t15.5 8.5q4 -8 5 -15.5t1 -15.5q0 -32 -29 -53t-74 -21zM502 393q0 31 10.5 52.5t28 35.5t40 20.5t46.5 6.5h9v-279 q0 -81 -34 -115t-100 -34v313zM391 2q-117 0 -117 128v260q0 59 30.5 88.5t85.5 29.5q5 0 9 -0.5t9 -0.5v-349q0 -12 1.5 -23t6 -19.5t13 -14t23.5 -5.5q8 0 17 2.5t15 8.5q3 -7 4.5 -15t1.5 -14q0 -37 -28.5 -56.5t-70.5 -19.5z" />
<glyph unicode="x" horiz-adv-x="424" d="M50 508h11q54 0 88 -27t34 -78v-133q-66 0 -99.5 30t-33.5 87v121zM255 508h13q24 0 45.5 -7t37.5 -20.5t26 -32t11 -41.5v-12q0 -23 -3.5 -45t-14.5 -40t-30.5 -29t-51.5 -11q-36 0 -57.5 24t-21.5 61v9q6 -5 9.5 -7.5t12.5 -2.5q15 0 19.5 10t4.5 30v114zM238 262h11 q54 0 88 -27t34 -78v-157q-66 0 -99.5 35t-33.5 92v135zM169 0h-17q-51 0 -83.5 25t-32.5 73v49q0 22 4 43.5t15.5 37.5t31.5 26t52 10q33 0 55 -20t22 -65v-9q-2 4 -8 7t-12 3q-10 0 -15.5 -4t-8 -9.5t-3 -11t-0.5 -9.5v-146z" />
<glyph unicode="y" d="M179 158q0 -12 1.5 -23t6 -19.5t13 -14t23.5 -5.5q8 0 16.5 2.5t15.5 8.5q4 -8 5 -15.5t1 -15.5q0 -32 -26 -54t-71 -22q-54 0 -86.5 33.5t-32.5 96.5v377h6q60 0 94 -28.5t34 -91.5v-229zM407 -17q0 -62 -35.5 -89.5t-87.5 -27.5h-11v641h6q22 0 45 -6t41.5 -19.5 t30 -35.5t11.5 -53v-410zM105 -177q0 31 12 50.5t29 30.5t36 14.5t33 3.5q12 0 20 -2v-46q0 -21 10 -31t25 -10q18 0 32 12q3 -8 3.5 -14.5t0.5 -14.5q0 -12 -5.5 -27.5t-17 -29t-30 -23t-44.5 -9.5q-27 0 -46.5 9t-32 22.5t-19 30.5t-6.5 34z" />
<glyph unicode="z" horiz-adv-x="423" d="M254 508q24 0 48 -5t43 -18t31 -36t12 -59v-26q0 -32 -11 -54t-28.5 -35.5t-40 -19t-45.5 -5.5h-9v258zM169 0q-24 0 -48 5t-43 18t-31 36t-12 59v26q0 32 11 54t28.5 35.5t40 19t45.5 5.5h9v-258zM39 411q0 17 6 34t19 31t32 22.5t45 8.5q27 0 46 -8t30.5 -21t17 -28 t5.5 -28q0 -8 -0.5 -16.5t-3.5 -16.5q-14 12 -32 12q-15 0 -25 -9.5t-10 -28.5v-49q-8 -2 -20 -2q-14 0 -33 3.5t-36 14.5t-29 30t-12 51zM383 96q0 -17 -6 -34t-19 -31t-32 -22.5t-45 -8.5q-27 0 -46 9.5t-30.5 23t-17 29t-5.5 27.5q0 8 0.5 14.5t3.5 14.5q13 -12 32 -12 q15 0 25 9.5t10 28.5v49q8 2 20 2q14 0 33 -3.5t36 -14.5t29 -30.5t12 -50.5z" />
<glyph unicode="{" horiz-adv-x="383" d="M164 131h-9q-26 0 -50 5t-43 18t-30.5 35t-11.5 57t13.5 57.5t34 35t45 17.5t47.5 5h4v-230zM184 606q0 34 12 57.5t32 37t46 19.5t54 6v-291q0 -37 -11.5 -60t-30 -36t-43 -18t-49.5 -5h-10v290zM328 -250h-10q-26 0 -50 5t-42.5 18.5t-30 37t-11.5 60.5v291 q24 0 49.5 -6t46.5 -19.5t34.5 -37t13.5 -57.5v-292z" />
<glyph unicode="|" horiz-adv-x="344" d="M100 726q78 0 111 -30.5t33 -99.5v-807q0 -37 -11.5 -60t-30 -36t-43 -18t-49.5 -5h-10v1056z" />
<glyph unicode="}" horiz-adv-x="383" d="M219 361h4q22 0 47 -5t45.5 -17.5t34 -35t13.5 -57.5t-11.5 -57t-30.5 -35t-43.5 -18t-49.5 -5h-9v230zM199 316h-10q-26 0 -50 5t-42.5 18t-30 36t-11.5 60v291q24 0 49.5 -6t46.5 -19.5t34.5 -37t13.5 -57.5v-290zM55 42q0 34 13 57.5t33.5 37t46 19.5t51.5 6v-291 q0 -37 -11.5 -60.5t-30 -37t-43 -18.5t-49.5 -5h-10v292z" />
<glyph unicode="~" horiz-adv-x="388" d="M122 609q-17 0 -33 -7.5t-30 -27.5q-19 28 -19 59q0 19 7.5 36t21 30t31 20t37.5 7t35.5 -4t29.5 -9t27.5 -9t29.5 -4t32 5.5t33 20.5q24 -36 24 -67q0 -32 -22 -56t-64 -24q-20 0 -38 4.5t-35 10.5t-33.5 10.5t-33.5 4.5z" />
<glyph unicode="&#xa1;" horiz-adv-x="254" d="M60 270h9q22 0 44.5 -7t40.5 -21t29 -36t11 -52v-403q-27 0 -51 8.5t-42.5 24t-29.5 37.5t-11 50v399zM194 437q0 -31 -21 -52t-50 -21q-31 0 -52 21t-21 52q0 29 21 50t52 21q29 0 50 -21t21 -50z" />
<glyph unicode="&#xa2;" horiz-adv-x="456" d="M189 0h-9q-23 0 -45.5 5.5t-40 19t-28.5 35.5t-11 54v276q0 36 12 59t31 36t43 18t48 5v-508zM410 409q0 -15 -5.5 -31t-17.5 -28.5t-30.5 -20.5t-44.5 -8q-8 0 -14 0.5t-16 2.5v34q0 20 -8 37t-31 17q-11 0 -18.5 -3.5t-14.5 -8.5q-7 14 -7 32q0 30 26 53t72 23 q19 0 38.5 -6t35 -18.5t25.5 -31t10 -43.5zM410 97q0 -24 -10 -42.5t-25.5 -30.5t-34 -18t-34.5 -6q-51 0 -77 23t-26 53q0 18 7 32q13 -12 30 -12q25 2 33.5 17t8.5 37v34q15 4 31 4q26 0 44.5 -8t30 -21t17 -29.5t5.5 -32.5zM195 -15q7 -3 24 -5t36 -2q17 0 30.5 1.5 t18.5 4.5v-126q-4 0 -7 -0.5t-6 -0.5q-24 0 -42 8t-30 20.5t-18 27.5t-6 29v43zM195 567q0 14 6 29t18 27.5t30 20.5t42 8q3 0 6 -0.5t7 -0.5v-126q-5 3 -18.5 4.5t-30.5 1.5q-19 0 -36 -2t-24 -5v43z" />
<glyph unicode="&#xa3;" horiz-adv-x="494" d="M204 278h-12q-23 0 -46 5t-42.5 18.5t-31.5 37t-12 59.5v208q0 36 12 59.5t31.5 37t42.5 18.5t46 5h12v-448zM264 593q0 4 -0.5 10.5t-2.5 12.5t-6.5 10.5t-13.5 4.5q-12 0 -18 -11v14q0 46 22.5 69t64.5 23q46 0 70 -29t24 -66v-18q0 -31 -11.5 -52t-29 -34t-38 -18.5 t-39.5 -5.5q-6 0 -11.5 0.5t-10.5 1.5v88zM408 1h-12q-23 0 -46 5t-42.5 18.5t-31.5 37t-12 59.5v149h12q22 0 45.5 -5t43 -18.5t31.5 -37t12 -59.5v-149zM204 136q0 -20 2.5 -31.5t16.5 -11.5q9 0 12.5 2t9.5 9v-11q0 -41 -21 -68t-69 -27q-23 0 -40 8t-28.5 21t-17 30.5 t-5.5 35.5v59q0 34 10 56.5t26 36t36.5 19.5t40.5 6q7 0 13.5 -0.5t13.5 -1.5v-132zM264 392h105q42 0 66 -26t24 -68q0 -12 -1 -15h-194v109z" />
<glyph unicode="&#xa4;" horiz-adv-x="679" d="M117 321q0 46 17 86q9 20 20 37l-104 103q15 24 37.5 41t49.5 17q17 0 34 -8t35 -26l45 -46h1q41 18 87 18t86 -18l2 -1l46 47q33 34 69 34q27 0 49.5 -17t37.5 -41l-105 -104q11 -17 19 -36q18 -40 18 -86t-18 -87q-8 -18 -19 -35l105 -103q-15 -24 -37.5 -41t-49.5 -17 q-17 0 -34 8t-35 26l-45 45q-1 0 -3 -1q-40 -17 -86 -17t-87 17l-2 1l-44 -45q-34 -34 -69 -34q-27 0 -49.5 17t-37.5 41l103 102q-11 17 -19 36q-17 41 -17 87zM219 321q0 -26 9.5 -48t26.5 -39t39 -26.5t48 -9.5q25 0 47.5 9.5t39.5 26.5t26.5 39t9.5 48q0 25 -9.5 47.5 t-26.5 39.5t-39.5 26.5t-47.5 9.5q-26 0 -48 -9.5t-39 -26.5t-26.5 -39.5t-9.5 -47.5z" />
<glyph unicode="&#xa5;" horiz-adv-x="503" d="M309 726h16q24 0 47 -5.5t41 -19t29 -36.5t11 -59v-580q0 -35 -10 -59.5t-26.5 -40.5t-38 -23.5t-45.5 -7.5q-6 0 -12 0.5t-12 1.5v829zM182 280q-23 0 -43.5 8.5t-36.5 25t-25.5 41t-9.5 57.5v314h17q61 0 94 -32.5t33 -105.5v-142q0 -12 1.5 -23t6 -19.5t13 -14 t23.5 -5.5q8 0 16.5 2.5t15.5 8.5q0 -23 -6 -43.5t-19 -36.5t-33 -25.5t-47 -9.5zM142 -149q0 31 12 50.5t29 30.5t36 14.5t33 3.5q12 0 20 -2v-46q0 -20 9.5 -30.5t25.5 -10.5q18 0 32 12q3 -8 3.5 -14.5t0.5 -14.5q0 -12 -5.5 -27.5t-17 -29t-30 -23t-44.5 -9.5 q-27 0 -46.5 9t-32 22.5t-19 30.5t-6.5 34zM272 139h-205q0 22 7 44.5t23.5 40.5t43.5 29.5t67 11.5h64v-126zM272 -13h-205q0 22 7 44.5t23.5 40.5t43.5 29.5t67 11.5h64v-126z" />
<glyph unicode="&#xa6;" horiz-adv-x="344" d="M100 761q24 0 49.5 -6t46.5 -19.5t34.5 -37t13.5 -57.5v-226q0 -37 -11.5 -60t-30 -36t-43 -18t-49.5 -5h-10v465zM100 220q24 0 49.5 -6t46.5 -19.5t34.5 -37t13.5 -57.5v-231q0 -37 -11.5 -60t-30 -36t-43 -18t-49.5 -5h-10v470z" />
<glyph unicode="&#xa7;" horiz-adv-x="484" d="M122 44q-19 4 -31 14.5t-17 29.5t-5 49v422q0 42 11.5 66.5t30 38t42 17.5t47.5 4v-250h116q27 0 46 -4t31 -14.5t17 -29.5t5 -49v-462q0 -42 -11.5 -66.5t-30 -38t-42 -17.5t-47.5 -4v290h-116q-27 0 -46 4zM63 -152q0 15 4.5 31t15.5 29t28.5 21t43.5 8q8 0 18 -0.5 t18 -2.5v-35q0 -22 8 -37t31 -17q11 0 18.5 3.5t14.5 8.5q7 -14 7 -32q0 -30 -26.5 -53t-75.5 -23q-20 0 -39 6t-33.5 18.5t-23.5 31t-9 43.5zM423 626q0 -15 -4.5 -31t-15.5 -29t-28.5 -21t-43.5 -8q-8 0 -18 0.5t-18 2.5v35q0 22 -8 37t-31 17q-11 0 -18.5 -3.5 t-14.5 -8.5q-7 14 -7 32q0 30 26.5 53t75.5 23q20 0 39 -6t33.5 -18.5t23.5 -31t9 -43.5zM200 182h84v111h-84v-111z" />
<glyph unicode="&#xa8;" horiz-adv-x="406" d="M55 658q0 29 20.5 49.5t49.5 20.5t49.5 -20.5t20.5 -49.5t-20.5 -49t-49.5 -20t-49.5 20t-20.5 49zM211 658q0 29 21 49.5t50 20.5t49 -20.5t20 -49.5t-20 -49t-49 -20t-50 20t-21 49z" />
<glyph unicode="&#xa9;" horiz-adv-x="830" d="M281 -99q15 0 33.5 8.5t32.5 23.5q7 -15 7 -38t-9.5 -44t-27.5 -37t-44.5 -25.5t-60.5 -9.5q-69 0 -113 44.5t-44 129.5v614q0 42 12 76.5t34 58.5t52.5 37t67.5 13q28 0 52.5 -8.5t42.5 -24.5t28 -37.5t10 -48.5q0 -26 -10 -47q-11 18 -25.5 31.5t-47.5 13.5 q-9 0 -20 -2t-21 -10t-16.5 -23.5t-6.5 -41.5v-578q0 -28 8.5 -43t20.5 -22t24.5 -8.5t20.5 -1.5zM389 -41h-10q-22 0 -43 4.5t-37 15.5t-26 31t-10 52v385q0 32 9.5 52.5t25 32t36 16t42.5 4.5h13v-593zM580 42q0 -15 -5.5 -29.5t-16.5 -26.5t-28 -19.5t-39 -7.5 q-24 0 -40.5 8t-27 20t-15 25t-4.5 24q0 7 0.5 12.5t3.5 13.5q14 -11 28 -11q13 0 21.5 8t8.5 25v43q8 2 17 2q12 0 29 -3t32 -12.5t25.5 -26.5t10.5 -45zM580 469q0 -28 -10.5 -45t-25.5 -26.5t-32 -12.5t-29 -3q-9 0 -17 2v40q0 19 -8.5 27.5t-21.5 8.5q-18 0 -28 -10 q-3 7 -3.5 12.5t-0.5 12.5q0 10 4.5 23.5t14.5 25.5t26.5 20.5t40.5 8.5q23 0 40 -7.5t28 -19.5t16.5 -27t5.5 -30zM551 -99q35 0 53.5 20t18.5 55v578q0 26 -6.5 41.5t-16.5 23.5t-21 10t-20 2q-29 0 -45.5 -14t-27.5 -31q-10 21 -10 47q0 24 9.5 45.5t26 37.5t38.5 25.5 t48 9.5q81 0 129 -46t48 -138v-614q0 -85 -44 -129.5t-113 -44.5q-34 0 -60.5 9.5t-44.5 25.5t-27.5 37t-9.5 44t7 38q14 -15 32.5 -23.5t35.5 -8.5z" />
<glyph unicode="&#xaa;" horiz-adv-x="339" d="M195 670q0 12 -3.5 22t-18.5 10q-10 0 -17 -5q-3 7 -3 18q0 18 14 33.5t49 15.5q31 0 49.5 -19.5t18.5 -54.5v-183q-5 -1 -9 -1h-8q-32 0 -52 18.5t-20 50.5v95zM55 675q0 34 21 54.5t54 20.5q11 0 14 -1v-149q0 -12 3.5 -22t18.5 -10q10 0 17 5q3 -8 3 -19 q0 -18 -16 -33t-47 -15t-49.5 19.5t-18.5 54.5v95z" />
<glyph unicode="&#xab;" horiz-adv-x="651" d="M184 425q56 59 105 59q43 0 86 -49l-170 -165l172 -167q-18 -22 -39.5 -35t-47.5 -13q-23 0 -49 13.5t-55 44.5l-151 158zM418 425q56 59 105 59q43 0 86 -49l-170 -165l172 -167q-18 -22 -39.5 -35t-47.5 -13q-23 0 -49 13.5t-55 44.5l-151 158z" />
<glyph unicode="&#xac;" horiz-adv-x="634" d="M573 402v-264q-23 0 -45.5 5.5t-40.5 18.5t-29 35t-11 54v29v17h-402q0 22 7.5 44.5t24 40.5t44 29.5t67.5 11.5h377h8h1q0 -11 -1 -21z" />
<glyph unicode="&#xad;" horiz-adv-x="619" d="M574 413q0 -23 -5.5 -45.5t-18.5 -40.5t-35 -29t-54 -11h-416q0 22 7.5 44.5t24 40.5t44 29.5t67.5 11.5h386z" />
<glyph unicode="&#xae;" horiz-adv-x="830" d="M388 89q0 -25 -12.5 -42t-31 -27.5t-40 -15t-38.5 -4.5v431q0 32 8 54t22.5 35.5t33.5 19t42 5.5q18 0 32 -7t23.5 -17.5t14.5 -23.5t5 -26q0 -5 -0.5 -8.5t-1.5 -7.5q-11 8 -25 8q-21 0 -26.5 -14t-5.5 -31v-329zM454 544h9q45 0 72 -26.5t27 -77.5v-79q0 -48 -25.5 -75 t-64.5 -27q-21 0 -35.5 8t-23 20t-12 26.5t-3.5 27.5q6 -7 10.5 -9.5t18.5 -2.5q10 0 15.5 5.5t8 14.5t3 19t0.5 19v157zM549 0h-6q-20 0 -40.5 3.5t-38 13t-28.5 26.5t-11 45v159h13q19 0 39 -4t36 -13.5t26 -27t10 -44.5v-158zM281 -99q15 0 33.5 8.5t32.5 23.5 q7 -15 7 -38q0 -29 -13 -51t-34 -36.5t-46 -21.5t-49 -7q-69 0 -113 44.5t-44 129.5v614q0 42 12 76.5t34 58.5t52.5 37t67.5 13q63 0 98 -32.5t35 -86.5q0 -26 -10 -47q-14 17 -29.5 31t-43.5 14q-9 0 -20 -2t-21 -10t-16.5 -23.5t-6.5 -41.5v-578q0 -28 8.5 -43t20.5 -22 t24.5 -8.5t20.5 -1.5zM551 -99q35 0 53.5 20t18.5 55v578q0 26 -6.5 41.5t-16.5 23.5t-21 10t-20 2q-28 0 -43.5 -14t-29.5 -31q-10 21 -10 47q0 60 37.5 89t97.5 29q75 0 119.5 -49.5t44.5 -134.5v-614q0 -85 -44 -129.5t-113 -44.5q-27 0 -53 7.5t-45.5 22t-31.5 36 t-12 50.5q0 23 7 38q30 -32 68 -32z" />
<glyph unicode="&#xaf;" horiz-adv-x="496" d="M441 727q0 -23 -5.5 -45.5t-18.5 -40.5t-35 -29t-54 -11h-273q0 22 7.5 44.5t24 40.5t44 29.5t67.5 11.5h243z" />
<glyph unicode="&#xb0;" horiz-adv-x="339" d="M55 695q0 32 20 48.5t52 16.5h8q4 0 9 -1v-159q0 -12 3.5 -22t18.5 -10q10 0 17 5q3 -8 3 -15q0 -17 -15.5 -33.5t-41.5 -18.5h-6q-31 0 -49.5 19.5t-18.5 54.5v115zM284 575q0 -32 -20 -48.5t-52 -16.5h-9q-3 0 -8 1v159q0 12 -3.5 22t-18.5 10q-10 0 -17 -5q-3 7 -3 15 q0 17 15.5 33.5t41.5 18.5h6q31 0 49.5 -19.5t18.5 -54.5v-115z" />
<glyph unicode="&#xb1;" horiz-adv-x="495" d="M310 159q-57 0 -85 23.5t-28 78.5v19h-137q0 57 23.5 85t78.5 28h35v115q57 0 85 -22t28 -70v-23h125q0 -57 -22 -85t-70 -28h-33v-121zM60 0q0 57 23.5 85t78.5 28h273q0 -57 -22 -85t-70 -28h-283z" />
<glyph unicode="&#xb2;" horiz-adv-x="301" d="M164 763q3 0 6 0.5t6 0.5q28 0 49 -16t21 -48v-18q0 -20 -7.5 -32t-19.5 -19t-25.5 -9.5t-25.5 -2.5h-4v144zM235 508h-9q-26 0 -45.5 10.5t-19.5 43.5q0 15 6 25t15.5 15t20.5 7t20 2h12v-103zM56 711q0 17 12.5 34.5t39.5 17.5q23 0 34 -13t11 -27q0 -12 -3 -22 q-5 6 -12 6q-14 0 -14 -21v-26h-13q-23 0 -39 13t-16 38zM55 570q0 16 6.5 26.5t16 16t19.5 7.5t17 2q3 0 5.5 -0.5t3.5 -0.5v-32q0 -10 2 -17t10 -7q7 0 13 6q1 -2 2.5 -9t1.5 -13q0 -17 -11.5 -28.5t-33.5 -11.5q-21 0 -36.5 13.5t-15.5 41.5v6z" />
<glyph unicode="&#xb3;" horiz-adv-x="300" d="M163 763h11q12 0 24.5 -3t23 -10.5t17 -20t6.5 -30.5q0 -20 -7.5 -32t-19 -19t-25.5 -10q-11 -2 -20 -2q9 -1 20 -3q14 -2 25.5 -9.5t18.5 -20.5q7 -11 8 -29q0 -20 -7 -32.5t-18 -20t-24.5 -10.5t-25.5 -3h-7v255zM55 712q0 18 12.5 34.5t39.5 16.5q23 0 34 -11.5 t11 -28.5q0 -12 -3 -22q-3 4 -7 5t-6 1q-13 0 -13 -20v-26h-9q-7 0 -17 1.5t-19.5 7t-16 15.5t-6.5 27zM55 559q0 16 6.5 26.5t16 16t19.5 7.5t17 2q3 0 5.5 -0.5t3.5 -0.5v-29q0 -11 4 -14t10 -3t11 6q2 -3 3 -10t1 -12q0 -17 -11.5 -28.5t-32.5 -11.5q-23 0 -38 14t-15 37 z" />
<glyph unicode="&#xb4;" horiz-adv-x="309" d="M65 566q0 22 2.5 47t13 46t31 35t56.5 14h76q0 -23 -2.5 -48t-12.5 -46t-31 -34.5t-57 -13.5h-76z" />
<glyph unicode="&#xb6;" horiz-adv-x="561" d="M359 0h-10q-26 0 -50 5t-42.5 18t-30 36t-11.5 60v607h14q22 0 45 -5.5t42 -19t31 -36.5t12 -59v-606zM184 357h-6q-24 0 -48.5 9.5t-44.5 29t-32.5 50.5t-12.5 75v46q0 43 13.5 73.5t34.5 49t46.5 27t49.5 8.5v-368zM501 0h-5q-45 0 -77 30.5t-32 98.5v597h5 q45 0 77 -30.5t32 -98.5v-597z" />
<glyph unicode="&#xb7;" horiz-adv-x="312" d="M96 292q-1 57 23.5 81t78.5 24h9q5 0 10 -2v-76q0 -40 -25 -62t-76 -22q-5 0 -9.5 0.5t-9.5 0.5z" />
<glyph unicode="&#xb8;" horiz-adv-x="318" d="M258 -82q0 -24 -5 -46.5t-17 -40t-32.5 -28.5t-51.5 -11q-48 0 -70 24.5t-22 56.5q0 8 2 19t4 19q3 -9 12.5 -13.5t17.5 -4.5q21 0 29 12.5t8 32.5v50q12 -5 32.5 -6.5t42.5 -1.5q29 0 50 3v-65z" />
<glyph unicode="&#xb9;" horiz-adv-x="198" d="M60 763q16 0 32 -4t28.5 -13t20 -24.5t7.5 -37.5v-107q0 -21 -7.5 -34t-19.5 -20.5t-26.5 -10t-27.5 -2.5h-7v253z" />
<glyph unicode="&#xba;" horiz-adv-x="339" d="M284 575q0 -32 -20 -50.5t-52 -18.5h-17v164q0 12 -3.5 22t-18.5 10q-10 0 -17 -5q-2 4 -2.5 9.5t-0.5 8.5q0 17 14 33t45 16q35 0 53.5 -19.5t18.5 -54.5v-115zM55 695q0 32 21.5 50.5t61.5 18.5h6v-162q0 -14 3.5 -24t18.5 -10q10 0 17 5q3 -8 3 -17q0 -17 -13 -33.5 t-45 -16.5q-34 0 -53.5 19.5t-19.5 54.5v115z" />
<glyph unicode="&#xbb;" horiz-adv-x="651" d="M467 103q-57 -59 -105 -59q-43 0 -86 49l170 165l-172 167q18 22 39.5 35t47.5 13q23 0 49 -13.5t55 -44.5l151 -158zM233 103q-57 -59 -105 -59q-43 0 -86 49l170 165l-172 167q18 22 39.5 35t47.5 13q23 0 49 -13.5t55 -44.5l151 -158z" />
<glyph unicode="&#xbc;" horiz-adv-x="593" d="M350 101h-9q-22 0 -42.5 6t-36.5 19t-25.5 34t-9.5 51v64q0 30 9.5 51t25.5 34t36.5 19t42.5 6h9v-284zM365 185q0 36 9.5 59.5t25 37t35.5 18.5t42 5h12v-185q0 -36 -9.5 -59.5t-25 -37t-35.5 -18.5t-42 -5h-12v185zM573 212q-1 -55 -17 -81.5t-52 -28.5v110h69z M232 762h12q22 0 45.5 -5t43 -18.5t31.5 -37t12 -59.5v-116q0 -36 -12 -59.5t-31.5 -37t-43 -18.5t-45.5 -5h-12v356zM194 0h-12q-23 0 -46 5t-42.5 18.5t-31.5 37t-12 59.5v156q0 36 12 59.5t31.5 37t42.5 18.5t46 5h12v-396zM81 725h9q22 0 43.5 -6t38 -19t26.5 -34 t10 -51v-64q0 -30 -10 -51t-26.5 -34t-38 -19t-43.5 -6h-9v284z" />
<glyph unicode="&#xbd;" horiz-adv-x="545" d="M194 0h-12q-23 0 -46 5t-42.5 18.5t-31.5 37t-12 59.5v156q0 36 12 59.5t31.5 37t42.5 18.5t46 5h12v-396zM232 762h12q22 0 45.5 -5t43 -18.5t31.5 -37t12 -59.5v-116q0 -36 -12 -59.5t-31.5 -37t-43 -18.5t-45.5 -5h-12v356zM81 725h9q22 0 43.5 -6t38 -19t26.5 -34 t10 -51v-64q0 -30 -10 -51t-26.5 -34t-38 -19t-43.5 -6h-9v284zM376 399q5 1 9 1h9q22 0 42 -6.5t35.5 -19t24.5 -31.5t9 -43v-29q0 -31 -12.5 -50t-31 -30t-40 -15t-40.5 -4h-5v227zM225 95q0 26 10 42t24 25t29.5 12t27.5 3q8 0 16 -2v-55q0 -17 3 -25t14 -8q15 0 22 10 q6 -18 6 -34q0 -26 -16.5 -45t-48.5 -19q-35 0 -61 22.5t-26 57.5v16zM500 1q-5 0 -9 -0.5t-9 -0.5q-17 0 -34.5 3.5t-32 14t-23.5 28.5t-9 47q0 28 10.5 45t26.5 26.5t33 13t31 3.5q12 0 16 -1v-179zM216 319q0 13 4.5 27.5t14 26t25 19t36.5 7.5q35 0 53.5 -18.5 t18.5 -44.5q0 -17 -6 -35q-7 10 -22 10q-11 0 -14 -8t-3 -25v-40q-1 -1 -14 -1q-11 0 -27 3t-30.5 11.5t-25 24.5t-10.5 43z" />
<glyph unicode="&#xbe;" horiz-adv-x="684" d="M285 0h-12q-23 0 -46 5t-42.5 18.5t-31.5 37t-12 59.5v156q0 36 12 59.5t31.5 37t42.5 18.5t46 5h12v-396zM323 762h12q22 0 45.5 -5t43 -18.5t31.5 -37t12 -59.5v-116q0 -36 -12 -59.5t-31.5 -37t-43 -18.5t-45.5 -5h-12v356zM456 185q0 36 9.5 59.5t25 37t35.5 18.5 t42 5h12v-185q0 -36 -9.5 -59.5t-25 -37t-35.5 -18.5t-42 -5h-12v185zM441 101h-9q-22 0 -42.5 6t-36.5 19t-25.5 34t-9.5 51v64q0 30 9.5 51t25.5 34t36.5 19t42.5 6h9v-284zM193 565v158q5 1 10 1h10q15 0 31 -3.5t29.5 -12.5t22 -24.5t8.5 -40.5q0 -26 -10 -41.5 t-25 -23.5t-33 -11q-12 -1 -23 -2q13 -1 27 -3q17 -2 31.5 -10t23.5 -23t9 -40q0 -26 -9 -42t-23 -25t-31 -12t-32 -3q-5 0 -8.5 0.5t-7.5 0.5v157zM50 659q0 23 17 43t52 20q29 0 44 -16.5t15 -39.5q0 -11 -3 -21q-4 5 -8.5 6.5t-9.5 1.5q-8 0 -10.5 -6.5t-2.5 -19.5v-31 q-2 0 -4.5 -0.5t-7.5 -0.5q-10 0 -24 2t-27 9t-22 19.5t-9 33.5zM50 471q0 20 9 32.5t21.5 19t26.5 9t24 2.5q12 0 13 -1v-30q0 -14 2.5 -20t10.5 -6q5 0 9.5 1t8.5 6q3 -11 3 -21q0 -23 -14.5 -39t-42.5 -16q-29 0 -50 17t-21 46zM664 212q-1 -55 -17 -81.5t-52 -28.5v110 h69z" />
<glyph unicode="&#xbf;" horiz-adv-x="423" d="M249 20q20 0 43.5 -6t43.5 -19.5t33.5 -37t13.5 -57.5v-18q0 -31 -9.5 -53.5t-24.5 -37t-34.5 -21.5t-39.5 -7q-25 0 -42.5 7.5t-29 20.5t-16.5 29t-5 33v12q0 9 1 14q10 -15 32 -15q12 0 18.5 5t10 13t4.5 17t1 17v104zM163 -233h-14q-54 0 -86.5 28.5t-32.5 94.5v31 q0 27 10 48t26 34.5t37 20.5t44 7h16v-264zM168 263h13q54 0 87.5 -28t33.5 -85q0 -32 -12 -52.5t-30 -32.5t-39.5 -17t-40.5 -5h-12v220zM280 426q0 -31 -21 -52t-50 -21q-31 0 -52 21t-21 52q0 29 21 50t52 21q29 0 50 -21t21 -50z" />
<glyph unicode="&#xc0;" horiz-adv-x="485" d="M184 0q-26 0 -50 5t-42.5 18t-30 36t-11.5 60v487q0 34 14 57.5t35 37t46.5 19.5t48.5 6v-726h-10zM204 416h81q0 -41 -15 -68.5t-61 -27.5h-5v96zM292 559q0 11 -1.5 22.5t-6 21t-13 15.5t-23.5 6q-19 0 -32 -12q-6 16 -6 29q0 16 5.5 31.5t17.5 27.5t30.5 19.5 t45.5 7.5q30 0 53.5 -10.5t39.5 -29t24.5 -43t8.5 -52.5v-592q-27 0 -52.5 4t-46 16.5t-32.5 37.5t-12 67v434zM256 770q-36 0 -57 13.5t-31 34.5t-12.5 46t-2.5 48h76q36 0 56.5 -14t31 -35t13 -46t2.5 -47h-76z" />
<glyph unicode="&#xc1;" horiz-adv-x="485" d="M184 0q-26 0 -50 5t-42.5 18t-30 36t-11.5 60v487q0 34 14 57.5t35 37t46.5 19.5t48.5 6v-726h-10zM204 416h81q0 -41 -15 -68.5t-61 -27.5h-5v96zM292 559q0 11 -1.5 22.5t-6 21t-13 15.5t-23.5 6q-19 0 -32 -12q-6 16 -6 29q0 16 5.5 31.5t17.5 27.5t30.5 19.5 t45.5 7.5q30 0 53.5 -10.5t39.5 -29t24.5 -43t8.5 -52.5v-592q-27 0 -52.5 4t-46 16.5t-32.5 37.5t-12 67v434zM153 780q0 22 2.5 47t13 46t31 35t56.5 14h76q0 -23 -2.5 -48t-12.5 -46t-31 -34.5t-57 -13.5h-76z" />
<glyph unicode="&#xc2;" horiz-adv-x="485" d="M366 852q14 -8 20 -20t6 -27q0 -20 -12.5 -38.5t-35.5 -23.5l-76 42l-74 -42q-26 7 -38 24t-12 35q0 15 7 28.5t20 20.5l97 54zM184 0q-26 0 -50 5t-42.5 18t-30 36t-11.5 60v487q0 34 14 57.5t35 37t46.5 19.5t48.5 6v-726h-10zM204 416h81q0 -41 -15 -68.5t-61 -27.5 h-5v96zM292 559q0 11 -1.5 22.5t-6 21t-13 15.5t-23.5 6q-19 0 -32 -12q-6 16 -6 29q0 16 5.5 31.5t17.5 27.5t30.5 19.5t45.5 7.5q30 0 53.5 -10.5t39.5 -29t24.5 -43t8.5 -52.5v-592q-27 0 -52.5 4t-46 16.5t-32.5 37.5t-12 67v434z" />
<glyph unicode="&#xc3;" horiz-adv-x="485" d="M292 559q0 11 -1.5 22.5t-6 21t-13 15.5t-23.5 6q-19 0 -32 -12q-6 16 -6 29q0 16 5.5 31.5t17.5 27.5t30.5 19.5t45.5 7.5q30 0 53.5 -10.5t39.5 -29t24.5 -43t8.5 -52.5v-592q-27 0 -52.5 4t-46 16.5t-32.5 37.5t-12 67v434zM184 0q-26 0 -50 5t-42.5 18t-30 36 t-11.5 60v487q0 34 14 57.5t35 37t46.5 19.5t48.5 6v-726h-10zM291 750q-19 3 -34 8t-29.5 9.5t-28.5 8t-30 3.5q-17 0 -33 -7.5t-30 -27.5q-19 28 -19 59q0 19 7.5 36.5t21 30t31 20t37.5 7.5t35.5 -4t29.5 -9.5t27.5 -9.5t29.5 -4t32 5.5t33 20.5q24 -36 24 -67 q0 -32 -22 -56t-64 -24h-9q-4 0 -9 1zM204 416h81q0 -41 -15 -68.5t-61 -27.5h-5v96z" />
<glyph unicode="&#xc4;" horiz-adv-x="485" d="M184 0q-26 0 -50 5t-42.5 18t-30 36t-11.5 60v487q0 34 14 57.5t35 37t46.5 19.5t48.5 6v-726h-10zM204 416h81q0 -41 -15 -68.5t-61 -27.5h-5v96zM292 559q0 11 -1.5 22.5t-6 21t-13 15.5t-23.5 6q-19 0 -32 -12q-6 16 -6 29q0 16 5.5 31.5t17.5 27.5t30.5 19.5 t45.5 7.5q30 0 53.5 -10.5t39.5 -29t24.5 -43t8.5 -52.5v-592q-27 0 -52.5 4t-46 16.5t-32.5 37.5t-12 67v434zM94 822q0 29 20.5 49.5t49.5 20.5t49.5 -20.5t20.5 -49.5t-20.5 -49t-49.5 -20t-49.5 20t-20.5 49zM250 822q0 29 21 49.5t50 20.5t49 -20.5t20 -49.5t-20 -49 t-49 -20t-50 20t-21 49z" />
<glyph unicode="&#xc5;" horiz-adv-x="485" d="M197 845q0 -12 3.5 -22t18.5 -10q4 0 8.5 1t8.5 4q3 -8 3 -15q0 -20 -15 -33.5t-36 -13.5q-38 0 -54 21t-16 47v66q0 29 17 48.5t47 19.5q31 0 43.5 -16t12.5 -35q0 -7 -2 -10q-7 5 -17 5q-13 0 -17.5 -7.5t-4.5 -17.5v-32zM286 877q0 10 -4.5 17.5t-17.5 7.5 q-10 0 -17 -5q-2 3 -2 10q0 19 12 35t44 16q30 0 47 -19.5t17 -48.5v-66q0 -26 -16 -47t-54 -21q-21 0 -36 13.5t-15 33.5q0 7 3 15q4 -3 8.5 -4t8.5 -1q15 0 18.5 10t3.5 22v32zM184 0q-26 0 -50 5t-42.5 18t-30 36t-11.5 60v487q0 34 14 57.5t35 37t46.5 19.5t48.5 6v-726 h-10zM204 416h81q0 -41 -15 -68.5t-61 -27.5h-5v96zM292 559q0 11 -1.5 22.5t-6 21t-13 15.5t-23.5 6q-19 0 -32 -12q-6 16 -6 29q0 16 5.5 31.5t17.5 27.5t30.5 19.5t45.5 7.5q30 0 53.5 -10.5t39.5 -29t24.5 -43t8.5 -52.5v-592q-27 0 -52.5 4t-46 16.5t-32.5 37.5t-12 67 v434z" />
<glyph unicode="&#xc6;" horiz-adv-x="690" d="M436 0h-10q-63 0 -98.5 27t-35.5 90v442q0 11 -1.5 22.5t-6 21t-13 15.5t-23.5 6q-19 0 -32 -12q-6 16 -6 29q0 16 5.5 31t17.5 27t30.5 19.5t45.5 7.5q29 0 52 -9q27 9 59 9h16v-726zM184 0q-26 0 -50 5t-42.5 18t-30 36t-11.5 60v477q0 37 11.5 62t30.5 40t43 21.5 t50 6.5h9v-726h-10zM655 96q0 -17 -6 -34t-19 -30.5t-32 -22.5t-45 -9q-19 0 -37 6t-31.5 16.5t-22 26t-8.5 34.5q0 8 0.5 17.5t3.5 17.5q13 -12 32 -12q15 0 25 9.5t10 28.5v49q8 2 20 2q14 0 33 -3.5t36 -14.5t29 -30.5t12 -50.5zM655 631q0 -32 -12 -51t-29 -30 t-36 -14.5t-33 -3.5q-12 0 -20 2v46q0 20 -9.5 30.5t-25.5 10.5q-17 0 -30 -11q-3 8 -4.5 19t-1.5 19q0 12 5.5 26t17 25.5t30 19.5t44.5 8q21 0 40 -7t33 -20t22.5 -30.5t8.5 -38.5zM457 416h89q0 -23 -3.5 -42t-13 -33.5t-25.5 -22.5t-41 -8h-6v106zM204 416h81 q0 -41 -15 -68.5t-61 -27.5h-5v96z" />
<glyph unicode="&#xc7;" horiz-adv-x="433" d="M194 0h-10q-26 0 -50 5t-42.5 18t-30 36t-11.5 60v487q0 36 11 59t29 36.5t41 19t47 5.5h16v-726zM413 96q0 -17 -6 -34t-19 -30.5t-32 -22.5t-45 -9q-42 0 -70.5 23.5t-28.5 65.5q0 8 0.5 14.5t3.5 14.5q13 -12 32 -12q15 0 25 9.5t10 28.5v49q8 2 20 2q14 0 33 -3.5 t36 -14.5t29 -30.5t12 -50.5zM413 631q0 -32 -12 -51t-29 -30t-36 -14.5t-33 -3.5q-12 0 -20 2v46q0 18 -9 29.5t-26 11.5q-19 0 -32 -12q-3 8 -3.5 14.5t-0.5 14.5q0 12 4.5 27.5t15.5 29t29.5 23t47.5 9.5q21 0 40 -7t33 -20t22.5 -30.5t8.5 -38.5zM307 -82 q0 -24 -5 -46.5t-17 -40t-32.5 -28.5t-51.5 -11q-48 0 -70 24.5t-22 56.5q0 8 2 19t4 19q3 -9 12.5 -13.5t17.5 -4.5q21 0 29 12.5t8 32.5v50q12 -5 32.5 -6.5t42.5 -1.5q29 0 50 3v-65z" />
<glyph unicode="&#xc8;" horiz-adv-x="438" d="M194 0h-10q-26 0 -50 5t-42.5 18t-30 36t-11.5 60v487q0 36 11 59t29 36.5t41 19t47 5.5h16v-726zM215 416h89q0 -23 -3.5 -42t-13 -33.5t-25.5 -22.5t-41 -8h-6v106zM413 96q0 -17 -6 -34t-19 -30.5t-32 -22.5t-45 -9q-19 0 -37 6.5t-31.5 18.5t-22 28t-8.5 36 q0 8 0.5 14.5t3.5 14.5q13 -12 32 -12q15 0 25 9.5t10 28.5v49q8 2 20 2q14 0 33 -3.5t36 -14.5t29 -30.5t12 -50.5zM413 631q0 -32 -12 -51t-29 -30t-36 -14.5t-33 -3.5q-12 0 -20 2v46q0 20 -9.5 30.5t-25.5 10.5q-19 0 -32 -12q-3 8 -3.5 14.5t-0.5 14.5q0 12 5.5 27.5 t17 29t30 23t44.5 9.5q21 0 40 -7t33 -20t22.5 -30.5t8.5 -38.5zM230 770q-36 0 -57 13.5t-31 34.5t-12.5 46t-2.5 48h76q36 0 56.5 -14t31 -35t13 -46t2.5 -47h-76z" />
<glyph unicode="&#xc9;" horiz-adv-x="438" d="M194 0h-10q-26 0 -50 5t-42.5 18t-30 36t-11.5 60v487q0 36 11 59t29 36.5t41 19t47 5.5h16v-726zM215 416h89q0 -23 -3.5 -42t-13 -33.5t-25.5 -22.5t-41 -8h-6v106zM413 96q0 -17 -6 -34t-19 -30.5t-32 -22.5t-45 -9q-19 0 -37 6.5t-31.5 18.5t-22 28t-8.5 36 q0 8 0.5 14.5t3.5 14.5q13 -12 32 -12q15 0 25 9.5t10 28.5v49q8 2 20 2q14 0 33 -3.5t36 -14.5t29 -30.5t12 -50.5zM413 631q0 -32 -12 -51t-29 -30t-36 -14.5t-33 -3.5q-12 0 -20 2v46q0 20 -9.5 30.5t-25.5 10.5q-19 0 -32 -12q-3 8 -3.5 14.5t-0.5 14.5q0 12 5.5 27.5 t17 29t30 23t44.5 9.5q21 0 40 -7t33 -20t22.5 -30.5t8.5 -38.5zM156 770q0 22 2.5 47t13 46t31 35t56.5 14h76q0 -23 -2.5 -48t-12.5 -46t-31 -34.5t-57 -13.5h-76z" />
<glyph unicode="&#xca;" horiz-adv-x="438" d="M157 5q-35 5 -59 18t-36 36t-12 60v487q0 36 11 59t29 36.5t41 19t47 5.5h16v-725q-20 1 -37 4zM413 96q0 -17 -6 -34t-19 -30.5t-32 -22.5t-45 -9q-19 0 -37 6.5t-31.5 18.5t-22 28t-8.5 36q0 8 0.5 14.5t3.5 14.5q13 -12 32 -12q15 0 25 9.5t10 28.5v49q8 2 20 2 q14 0 33 -3.5t36 -14.5t29 -30.5t12 -50.5zM413 631q0 -32 -12 -51t-29 -30t-36 -14.5t-33 -3.5q-12 0 -20 2v46q0 20 -9.5 30.5t-25.5 10.5q-19 0 -32 -12q-3 8 -3.5 14.5t-0.5 14.5q0 12 5.5 27.5t17 29t30 23t44.5 9.5q21 0 40 -7t33 -20t22.5 -30.5t8.5 -38.5zM336 852 q14 -8 20 -20t6 -27q0 -20 -12.5 -38.5t-35.5 -23.5l-76 42l-74 -42q-26 7 -38 24t-12 35q0 15 7 28.5t20 20.5l97 54zM215 416h89q0 -23 -3.5 -42t-13 -33.5t-25.5 -22.5t-41 -8h-6v106zM194 0h23q-12 0 -23 1v-1z" />
<glyph unicode="&#xcb;" horiz-adv-x="438" d="M194 0h-10q-26 0 -50 5t-42.5 18t-30 36t-11.5 60v487q0 36 11 59t29 36.5t41 19t47 5.5h16v-726zM215 416h89q0 -23 -3.5 -42t-13 -33.5t-25.5 -22.5t-41 -8h-6v106zM413 96q0 -17 -6 -34t-19 -30.5t-32 -22.5t-45 -9q-19 0 -37 6.5t-31.5 18.5t-22 28t-8.5 36 q0 8 0.5 14.5t3.5 14.5q13 -12 32 -12q15 0 25 9.5t10 28.5v49q8 2 20 2q14 0 33 -3.5t36 -14.5t29 -30.5t12 -50.5zM413 631q0 -32 -12 -51t-29 -30t-36 -14.5t-33 -3.5q-12 0 -20 2v46q0 20 -9.5 30.5t-25.5 10.5q-19 0 -32 -12q-3 8 -3.5 14.5t-0.5 14.5q0 12 5.5 27.5 t17 29t30 23t44.5 9.5q21 0 40 -7t33 -20t22.5 -30.5t8.5 -38.5zM88 839q0 29 20.5 49.5t49.5 20.5t49.5 -20.5t20.5 -49.5t-20.5 -49t-49.5 -20t-49.5 20t-20.5 49zM244 839q0 29 21 49.5t50 20.5t49 -20.5t20 -49.5t-20 -49t-49 -20t-50 20t-21 49z" />
<glyph unicode="&#xcc;" horiz-adv-x="279" d="M212 0h-10q-26 0 -50 5t-42.5 18t-30 36t-11.5 60v607h16q24 0 47 -5.5t41 -19t29 -36.5t11 -59v-606zM153 770q-36 0 -57 13.5t-31 34.5t-12.5 46t-2.5 48h76q36 0 56.5 -14t31 -35t13 -46t2.5 -47h-76z" />
<glyph unicode="&#xcd;" horiz-adv-x="279" d="M195 0h-10q-26 0 -50 5t-42.5 18t-30 36t-11.5 60v607h16q24 0 47 -5.5t41 -19t29 -36.5t11 -59v-606zM50 770q0 22 2.5 47t13 46t31 35t56.5 14h76q0 -23 -2.5 -48t-12.5 -46t-31 -34.5t-57 -13.5h-76z" />
<glyph unicode="&#xce;" horiz-adv-x="309" d="M252 852q14 -8 20 -20t6 -27q0 -20 -12.5 -38.5t-35.5 -23.5l-76 42l-74 -42q-26 7 -38 24t-12 35q0 15 7 28.5t20 20.5l97 54zM225 0h-10q-26 0 -50 5t-42.5 18t-30 36t-11.5 60v607h16q24 0 47 -5.5t41 -19t29 -36.5t11 -59v-606z" />
<glyph unicode="&#xcf;" horiz-adv-x="296" d="M221 0h-10q-26 0 -50 5t-42.5 18t-30 36t-11.5 60v607h16q24 0 47 -5.5t41 -19t29 -36.5t11 -59v-606zM0 842q0 29 20.5 49.5t49.5 20.5t49.5 -20.5t20.5 -49.5t-20.5 -49t-49.5 -20t-49.5 20t-20.5 49zM156 842q0 29 21 49.5t50 20.5t49 -20.5t20 -49.5t-20 -49t-49 -20 t-50 20t-21 49z" />
<glyph unicode="&#xd0;" horiz-adv-x="524" d="M474 135q0 -63 -32 -99t-92 -36q-27 0 -46.5 7.5t-31.5 19.5t-17.5 27.5t-5.5 31.5q0 8 1.5 14.5t4.5 14.5q13 -12 32 -12q12 0 18.5 6t10.5 15.5t5 21t1 22.5v390q0 11 -1 22.5t-5 21t-10.5 15.5t-18.5 6q-19 0 -32 -12q-6 16 -6 29q0 16 5.5 31.5t17.5 27.5t30.5 19.5 t45.5 7.5q60 0 93 -36t33 -99v-456zM233 0h-10q-26 0 -50 5t-42.5 18t-30 36t-11.5 60v607h16q24 0 47 -5.5t41 -19t29 -36.5t11 -59v-606zM242 416h71q0 -42 -18.5 -69t-52.5 -29v98zM76 318h-71q0 42 18.5 69t52.5 29v-98z" />
<glyph unicode="&#xd1;" horiz-adv-x="484" d="M291 559q0 11 -1.5 22.5t-6 21t-13 15.5t-23.5 6q-19 0 -32 -12q-6 16 -6 29q0 16 5.5 31.5t17.5 27.5t30.5 19.5t45.5 7.5q60 0 93 -36t33 -99v-592q-27 0 -52.5 4t-46 16.5t-32.5 37.5t-12 67v434zM194 0h-10q-26 0 -50 5t-42.5 18t-30 36t-11.5 60v607h16 q24 0 47 -5.5t41 -19t29 -36.5t11 -59v-606zM282 760q-19 3 -34 8t-29.5 9.5t-28.5 8t-30 3.5q-17 0 -33 -7.5t-30 -27.5q-19 28 -19 59q0 19 7.5 36.5t21 30t31 20t37.5 7.5t35.5 -4t29.5 -9.5t27.5 -9.5t29.5 -4t32 5.5t33 20.5q24 -36 24 -67q0 -32 -22 -56t-64 -24h-9 q-4 0 -9 1z" />
<glyph unicode="&#xd2;" horiz-adv-x="484" d="M291 559q0 11 -1.5 22.5t-6 21t-13 15.5t-23.5 6q-19 0 -32 -12q-6 16 -6 29q0 16 5.5 31.5t17.5 27.5t30.5 19.5t45.5 7.5q60 0 93 -36t33 -99v-467q0 -42 -12 -67t-32.5 -37.5t-46 -16.5t-52.5 -4v559zM193 169q0 -11 1.5 -22.5t6 -21t13 -15.5t23.5 -6q18 0 32 12 q3 -8 4.5 -14.5t1.5 -14.5q0 -16 -5.5 -31.5t-17.5 -27.5t-30.5 -19.5t-45.5 -7.5q-60 0 -93 36t-33 99v467q0 42 12 67t32.5 37.5t46 16.5t52.5 4v-559zM248 771q-36 0 -57 13.5t-31 34.5t-12.5 46t-2.5 48h76q36 0 56.5 -14t31 -35t13 -46t2.5 -47h-76z" />
<glyph unicode="&#xd3;" horiz-adv-x="484" d="M291 559q0 11 -1.5 22.5t-6 21t-13 15.5t-23.5 6q-19 0 -32 -12q-6 16 -6 29q0 16 5.5 31.5t17.5 27.5t30.5 19.5t45.5 7.5q60 0 93 -36t33 -99v-467q0 -42 -12 -67t-32.5 -37.5t-46 -16.5t-52.5 -4v559zM193 169q0 -11 1.5 -22.5t6 -21t13 -15.5t23.5 -6q18 0 32 12 q3 -8 4.5 -14.5t1.5 -14.5q0 -16 -5.5 -31.5t-17.5 -27.5t-30.5 -19.5t-45.5 -7.5q-60 0 -93 36t-33 99v467q0 42 12 67t32.5 37.5t46 16.5t52.5 4v-559zM175 770q0 22 2.5 47t13 46t31 35t56.5 14h76q0 -23 -2.5 -48t-12.5 -46t-31 -34.5t-57 -13.5h-76z" />
<glyph unicode="&#xd4;" horiz-adv-x="484" d="M344 852q14 -8 20 -20t6 -27q0 -20 -12.5 -38.5t-35.5 -23.5l-76 42l-74 -42q-26 7 -38 24t-12 35q0 15 7 28.5t20 20.5l97 54zM291 559q0 11 -1.5 22.5t-6 21t-13 15.5t-23.5 6q-19 0 -32 -12q-6 16 -6 29q0 16 5.5 31.5t17.5 27.5t30.5 19.5t45.5 7.5q60 0 93 -36 t33 -99v-467q0 -42 -12 -67t-32.5 -37.5t-46 -16.5t-52.5 -4v559zM193 169q0 -11 1.5 -22.5t6 -21t13 -15.5t23.5 -6q18 0 32 12q3 -8 4.5 -14.5t1.5 -14.5q0 -16 -5.5 -31.5t-17.5 -27.5t-30.5 -19.5t-45.5 -7.5q-60 0 -93 36t-33 99v467q0 42 12 67t32.5 37.5t46 16.5 t52.5 4v-559z" />
<glyph unicode="&#xd5;" horiz-adv-x="484" d="M291 559q0 11 -1.5 22.5t-6 21t-13 15.5t-23.5 6q-19 0 -32 -12q-6 16 -6 29q0 16 5.5 31.5t17.5 27.5t30.5 19.5t45.5 7.5q60 0 93 -36t33 -99v-467q0 -42 -12 -67t-32.5 -37.5t-46 -16.5t-52.5 -4v559zM193 169q0 -11 1.5 -22.5t6 -21t13 -15.5t23.5 -6q18 0 32 12 q3 -8 4.5 -14.5t1.5 -14.5q0 -16 -5.5 -31.5t-17.5 -27.5t-30.5 -19.5t-45.5 -7.5q-60 0 -93 36t-33 99v467q0 42 12 67t32.5 37.5t46 16.5t52.5 4v-559zM287 750q-19 3 -34 8t-29.5 9.5t-28.5 8t-30 3.5q-17 0 -33 -7.5t-30 -27.5q-19 28 -19 59q0 19 7.5 36.5t21 30t31 20 t37.5 7.5t35.5 -4t29.5 -9.5t27.5 -9.5t29.5 -4t32 5.5t33 20.5q24 -36 24 -67q0 -32 -22 -56t-64 -24h-9q-4 0 -9 1z" />
<glyph unicode="&#xd6;" horiz-adv-x="484" d="M291 559q0 11 -1.5 22.5t-6 21t-13 15.5t-23.5 6q-19 0 -32 -12q-6 16 -6 29q0 16 5.5 31.5t17.5 27.5t30.5 19.5t45.5 7.5q60 0 93 -36t33 -99v-467q0 -42 -12 -67t-32.5 -37.5t-46 -16.5t-52.5 -4v559zM193 169q0 -11 1.5 -22.5t6 -21t13 -15.5t23.5 -6q18 0 32 12 q3 -8 4.5 -14.5t1.5 -14.5q0 -16 -5.5 -31.5t-17.5 -27.5t-30.5 -19.5t-45.5 -7.5q-60 0 -93 36t-33 99v467q0 42 12 67t32.5 37.5t46 16.5t52.5 4v-559zM95 838q0 29 20.5 49.5t49.5 20.5t49.5 -20.5t20.5 -49.5t-20.5 -49t-49.5 -20t-49.5 20t-20.5 49zM251 838 q0 29 21 49.5t50 20.5t49 -20.5t20 -49.5t-20 -49t-49 -20t-50 20t-21 49z" />
<glyph unicode="&#xd7;" horiz-adv-x="465" d="M109 469q39 0 74 -38l49 -54l60 63q33 34 64 34q20 0 40.5 -13t43.5 -36l-129 -128l127 -126q-45 -45 -84 -45q-34 0 -65 33l-58 59l-54 -58q-17 -18 -34 -26.5t-33 -8.5q-21 0 -42 12t-43 34l127 127l-127 128q43 43 84 43zM231 221l78 77l-78 77l-76 -77z" />
<glyph unicode="&#xd8;" horiz-adv-x="489" d="M439 685q-4 15 -15.5 27t-27.5 21t-35.5 13.5t-38.5 4.5q-15 0 -28 -3v38q0 33 10 55.5t26.5 35.5t37 18.5t41.5 5.5q15 0 30 -3v-213zM50 48q4 -15 15.5 -27t27.5 -21t35 -13.5t39 -4.5q14 0 28 3v-38q0 -33 -10 -55.5t-26.5 -35.5t-37 -18.5t-41.5 -5.5q-15 0 -30 3 v213zM293 559q0 11 -1.5 22.5t-6 21t-13 15.5t-23.5 6q-19 0 -32 -12q-6 16 -6 29q0 16 5.5 31.5t17.5 27.5t30.5 19.5t45.5 7.5q60 0 93 -36t33 -99v-467q0 -42 -12 -67t-32.5 -37.5t-46 -16.5t-52.5 -4v559zM195 169q0 -11 1.5 -22.5t6 -21t13 -15.5t23.5 -6q18 0 32 12 q3 -8 4.5 -14.5t1.5 -14.5q0 -16 -5.5 -31.5t-17.5 -27.5t-30.5 -19.5t-45.5 -7.5q-60 0 -93 36t-33 99v467q0 42 12 67t32.5 37.5t46 16.5t52.5 4v-559z" />
<glyph unicode="&#xd9;" horiz-adv-x="485" d="M193 169q0 -11 1.5 -22.5t6 -21t13 -15.5t23.5 -6q18 0 32 12q3 -8 4.5 -14.5t1.5 -14.5q0 -16 -5.5 -31.5t-17.5 -27.5t-30.5 -19.5t-45.5 -7.5q-60 0 -93 36t-33 99v592q27 0 52.5 -4t46 -16.5t32.5 -37.5t12 -67v-434zM435 0h-10q-26 0 -50 5t-42.5 18t-30 36 t-11.5 60v607h16q24 0 47 -5.5t41 -19t29 -36.5t11 -59v-606zM236 770q-36 0 -57 13.5t-31 34.5t-12.5 46t-2.5 48h76q36 0 56.5 -14t31 -35t13 -46t2.5 -47h-76z" />
<glyph unicode="&#xda;" horiz-adv-x="485" d="M193 169q0 -11 1.5 -22.5t6 -21t13 -15.5t23.5 -6q18 0 32 12q3 -8 4.5 -14.5t1.5 -14.5q0 -16 -5.5 -31.5t-17.5 -27.5t-30.5 -19.5t-45.5 -7.5q-60 0 -93 36t-33 99v592q27 0 52.5 -4t46 -16.5t32.5 -37.5t12 -67v-434zM435 0h-10q-26 0 -50 5t-42.5 18t-30 36 t-11.5 60v607h16q24 0 47 -5.5t41 -19t29 -36.5t11 -59v-606zM153 770q0 22 2.5 47t13 46t31 35t56.5 14h76q0 -23 -2.5 -48t-12.5 -46t-31 -34.5t-57 -13.5h-76z" />
<glyph unicode="&#xdb;" horiz-adv-x="485" d="M324 852q14 -8 20 -20t6 -27q0 -20 -12.5 -38.5t-35.5 -23.5l-76 42l-74 -42q-26 7 -38 24t-12 35q0 15 7 28.5t20 20.5l97 54zM193 169q0 -11 1.5 -22.5t6 -21t13 -15.5t23.5 -6q18 0 32 12q3 -8 4.5 -14.5t1.5 -14.5q0 -16 -5.5 -31.5t-17.5 -27.5t-30.5 -19.5 t-45.5 -7.5q-60 0 -93 36t-33 99v592q27 0 52.5 -4t46 -16.5t32.5 -37.5t12 -67v-434zM435 0h-10q-26 0 -50 5t-42.5 18t-30 36t-11.5 60v607h16q24 0 47 -5.5t41 -19t29 -36.5t11 -59v-606z" />
<glyph unicode="&#xdc;" horiz-adv-x="485" d="M193 169q0 -11 1.5 -22.5t6 -21t13 -15.5t23.5 -6q18 0 32 12q3 -8 4.5 -14.5t1.5 -14.5q0 -16 -5.5 -31.5t-17.5 -27.5t-30.5 -19.5t-45.5 -7.5q-60 0 -93 36t-33 99v592q27 0 52.5 -4t46 -16.5t32.5 -37.5t12 -67v-434zM435 0h-10q-26 0 -50 5t-42.5 18t-30 36 t-11.5 60v607h16q24 0 47 -5.5t41 -19t29 -36.5t11 -59v-606zM94 839q0 29 20.5 49.5t49.5 20.5t49.5 -20.5t20.5 -49.5t-20.5 -49t-49.5 -20t-49.5 20t-20.5 49zM250 839q0 29 21 49.5t50 20.5t49 -20.5t20 -49.5t-20 -49t-49 -20t-50 20t-21 49z" />
<glyph unicode="&#xdd;" horiz-adv-x="466" d="M277 726h16q24 0 47 -5.5t41 -19t29 -36.5t11 -59v-336q0 -35 -10 -59.5t-26.5 -40.5t-38 -23.5t-45.5 -7.5q-6 0 -12 0.5t-12 1.5v585zM150 280q-23 0 -43.5 8.5t-36.5 25t-25.5 41t-9.5 57.5v314h21q61 0 92 -32.5t31 -105.5v-142q0 -12 1.5 -23t6 -19.5t13 -14 t23.5 -5.5q8 0 16.5 2.5t15.5 8.5q0 -23 -6 -43.5t-19 -36.5t-33 -25.5t-47 -9.5zM110 95q0 31 11 50.5t27.5 30.5t35 14.5t32.5 3.5q7 0 14.5 -0.5t9.5 -1.5v-46q0 -21 10 -31t25 -10q18 0 32 12q3 -8 3.5 -14.5t0.5 -14.5q0 -12 -5.5 -27.5t-17 -29t-30 -23t-44.5 -9.5 q-27 0 -46.5 9t-32 22.5t-19 30.5t-6.5 34zM144 769q0 22 2.5 47t13 46t31 35t56.5 14h76q0 -23 -2.5 -48t-12.5 -46t-31 -34.5t-57 -13.5h-76z" />
<glyph unicode="&#xde;" horiz-adv-x="497" d="M55 764q26 0 52 -6t46.5 -21t33 -39t12.5 -60v-758q0 -42 -14 -67.5t-35 -39.5t-46.5 -18.5t-48.5 -4.5v1014zM452 145q0 -69 -32 -106.5t-90 -37.5q-28 0 -47.5 7.5t-32 19.5t-18.5 27.5t-6 31.5q0 17 7 31q13 -11 31 -11q20 0 32 16t12 49v291q0 20 -8.5 37t-31.5 17 q-22 0 -36 -11q-4 8 -5 15.5t-1 15.5q0 16 5 32t17 29t32 21t50 8q33 0 56 -10.5t38 -28.5t21.5 -40.5t6.5 -46.5v-356z" />
<glyph unicode="&#xdf;" horiz-adv-x="457" d="M194 0h-16q-25 0 -48 5.5t-41 19t-28.5 37t-10.5 59.5v476q0 60 31 94.5t91 34.5q16 0 33 -4.5t31.5 -13.5t23.5 -23t9 -33q0 -20 -6 -36q-4 6 -11.5 14t-22.5 8q-23 0 -29 -13.5t-6 -29.5v-595zM265 346q33 0 59.5 -5.5t45 -19t29 -37t10.5 -59.5v-100q0 -60 -29 -94.5 t-89 -34.5q-26 0 -42 7t-25 17t-12.5 20.5t-3.5 17.5q0 33 13 46q7 -18 23 -18q15 0 18 12.5t3 28.5v219zM265 615q8 2 16.5 2.5t13.5 0.5q20 0 41 -6t38.5 -19.5t29.5 -37t13 -57.5v-21q0 -36 -13 -60t-32.5 -38t-43 -20t-43.5 -6h-10q-5 0 -10 1v261z" />
<glyph unicode="&#xe0;" d="M273 352q0 12 -1.5 23t-6 19.5t-13 14t-23.5 5.5q-8 0 -16.5 -2.5t-15.5 -8.5q-4 8 -5 15.5t-1 15.5q0 32 27 53t65 21q60 0 92 -30.5t32 -87.5v-390q-23 0 -46.5 5.5t-43 19t-32 36t-12.5 57.5v234zM179 156q0 -12 1.5 -23t6 -19.5t13 -14t23.5 -5.5q8 0 16.5 2.5 t15.5 8.5q4 -8 5 -15.5t1 -15.5q0 -32 -27 -53t-65 -21q-60 0 -92 32t-32 80v278q0 33 12.5 55.5t32 36.5t43 20t46.5 6v-352zM239 566q-36 0 -57 13.5t-31 34.5t-12.5 46t-2.5 48h76q36 0 56.5 -14t31 -35t13 -46t2.5 -47h-76z" />
<glyph unicode="&#xe1;" d="M273 352q0 12 -1.5 23t-6 19.5t-13 14t-23.5 5.5q-8 0 -16.5 -2.5t-15.5 -8.5q-4 8 -5 15.5t-1 15.5q0 32 27 53t65 21q60 0 92 -30.5t32 -87.5v-390q-23 0 -46.5 5.5t-43 19t-32 36t-12.5 57.5v234zM179 156q0 -12 1.5 -23t6 -19.5t13 -14t23.5 -5.5q8 0 16.5 2.5 t15.5 8.5q4 -8 5 -15.5t1 -15.5q0 -32 -27 -53t-65 -21q-60 0 -92 32t-32 80v278q0 33 12.5 55.5t32 36.5t43 20t46.5 6v-352zM136 566q0 22 2.5 47t13 46t31 35t56.5 14h76q0 -23 -2.5 -48t-12.5 -46t-31 -34.5t-57 -13.5h-76z" />
<glyph unicode="&#xe2;" d="M338 663q12 -11 18 -26t6 -30q0 -18 -8 -35.5t-25 -29.5l-97 91l-96 -92q-17 12 -26 30t-9 37q0 16 6 30.5t18 24.5l107 91zM273 352q0 12 -1.5 23t-6 19.5t-13 14t-23.5 5.5q-8 0 -16.5 -2.5t-15.5 -8.5q-4 8 -5 15.5t-1 15.5q0 32 27 53t65 21q60 0 92 -30.5t32 -87.5 v-390q-23 0 -46.5 5.5t-43 19t-32 36t-12.5 57.5v234zM179 156q0 -12 1.5 -23t6 -19.5t13 -14t23.5 -5.5q8 0 16.5 2.5t15.5 8.5q4 -8 5 -15.5t1 -15.5q0 -32 -27 -53t-65 -21q-60 0 -92 32t-32 80v278q0 33 12.5 55.5t32 36.5t43 20t46.5 6v-352z" />
<glyph unicode="&#xe3;" d="M273 352q0 12 -1.5 23t-6 19.5t-13 14t-23.5 5.5q-8 0 -16.5 -2.5t-15.5 -8.5q-4 8 -5 15.5t-1 15.5q0 32 27 53t65 21q60 0 92 -30.5t32 -87.5v-390q-23 0 -46.5 5.5t-43 19t-32 36t-12.5 57.5v234zM179 156q0 -12 1.5 -23t6 -19.5t13 -14t23.5 -5.5q8 0 16.5 2.5 t15.5 8.5q4 -8 5 -15.5t1 -15.5q0 -32 -27 -53t-65 -21q-60 0 -92 32t-32 80v278q0 33 12.5 55.5t32 36.5t43 20t46.5 6v-352zM282 580q-19 3 -34 8t-29.5 9.5t-28.5 8t-30 3.5q-17 0 -33 -7.5t-30 -27.5q-19 28 -19 59q0 19 7.5 36.5t21 30t31 20t37.5 7.5t35.5 -4 t29.5 -9.5t27.5 -9.5t29.5 -4t32 5.5t33 20.5q24 -36 24 -67q0 -32 -22 -56t-64 -24h-9q-4 0 -9 1z" />
<glyph unicode="&#xe4;" d="M79 658q0 29 20.5 49.5t49.5 20.5t49.5 -20.5t20.5 -49.5t-20.5 -49t-49.5 -20t-49.5 20t-20.5 49zM235 658q0 29 21 49.5t50 20.5t49 -20.5t20 -49.5t-20 -49t-49 -20t-50 20t-21 49zM273 352q0 12 -1.5 23t-6 19.5t-13 14t-23.5 5.5q-8 0 -16.5 -2.5t-15.5 -8.5 q-4 8 -5 15.5t-1 15.5q0 32 27 53t65 21q60 0 92 -30.5t32 -87.5v-390q-23 0 -46.5 5.5t-43 19t-32 36t-12.5 57.5v234zM179 156q0 -12 1.5 -23t6 -19.5t13 -14t23.5 -5.5q8 0 16.5 2.5t15.5 8.5q4 -8 5 -15.5t1 -15.5q0 -32 -27 -53t-65 -21q-60 0 -92 32t-32 80v278 q0 33 12.5 55.5t32 36.5t43 20t46.5 6v-352z" />
<glyph unicode="&#xe5;" d="M187 613q0 -12 3.5 -22t18.5 -10q4 0 8.5 1t8.5 4q3 -8 3 -15q0 -20 -15 -29.5t-35 -9.5q-30 0 -45.5 17t-15.5 43v76q0 29 17 45t47 16q23 0 34.5 -12t11.5 -32q0 -7 -2 -10q-7 5 -17 5q-13 0 -17.5 -7.5t-4.5 -17.5v-42zM282 655q0 10 -4.5 17.5t-17.5 7.5 q-10 0 -17 -5q-2 3 -2 10q0 20 11 32t35 12q30 0 47 -16t17 -45v-76q0 -26 -15.5 -43t-45.5 -17q-20 0 -35 9.5t-15 29.5q0 7 3 15q4 -3 8.5 -4t8.5 -1q15 0 18 10t4 22v42zM273 352q0 12 -1.5 23t-6 19.5t-13 14t-23.5 5.5q-8 0 -16.5 -2.5t-15.5 -8.5q-4 8 -5 15.5 t-1 15.5q0 32 27 53t65 21q60 0 92 -30.5t32 -87.5v-390q-23 0 -46.5 5.5t-43 19t-32 36t-12.5 57.5v234zM179 156q0 -12 1.5 -23t6 -19.5t13 -14t23.5 -5.5q8 0 16.5 2.5t15.5 8.5q4 -8 5 -15.5t1 -15.5q0 -32 -27 -53t-65 -21q-60 0 -92 32t-32 80v278q0 33 12.5 55.5 t32 36.5t43 20t46.5 6v-352z" />
<glyph unicode="&#xe6;" horiz-adv-x="665" d="M273 352q0 12 -1.5 23t-6 19.5t-13 14t-23.5 5.5q-8 0 -16.5 -2.5t-15.5 -8.5q-4 8 -4.5 19t-0.5 20q1 36 40 59.5t102 23.5q24 0 49.5 -5t46.5 -16.5t34.5 -31t13.5 -47.5q0 -6 -1 -13t-3 -12q-7 6 -13.5 9t-16.5 3q-24 0 -30.5 -15t-6.5 -32v-365h-9q-23 0 -45.5 5.5 t-40 19t-28.5 35.5t-11 54v238zM179 156q0 -12 1.5 -23t6 -19.5t13 -14t23.5 -5.5q8 0 16.5 2.5t15.5 8.5q4 -8 5 -17t1 -14q0 -32 -27 -53t-65 -21q-60 0 -92 32.5t-32 95.5v262q0 33 12.5 55.5t32 36.5t43 20t46.5 6v-352zM496 507q5 1 10 1h10q54 0 84 -27.5t30 -78.5 v-75q0 -57 -32.5 -85.5t-81.5 -28.5q-45 0 -70 22.5t-25 55.5q0 5 0.5 11t3.5 14q8 -8 14 -12t20 -4q23 0 30 16.5t7 38.5v152zM621 96q0 -17 -5 -34t-16 -30.5t-29 -22.5t-44 -9q-25 0 -44 7.5t-32 19.5t-19.5 27t-6.5 31q0 8 0.5 11.5t3.5 11.5q13 -12 32 -12q15 0 25 9.5 t10 28.5v47q5 1 11 1.5t12 0.5q17 0 35 -4t33 -14t24.5 -27t9.5 -42z" />
<glyph unicode="&#xe7;" horiz-adv-x="436" d="M179 0h-9q-23 0 -45.5 5.5t-40 19t-28.5 35.5t-11 54v276q0 36 12 59t31 36t43 18t48 5v-508zM400 409q0 -15 -4.5 -31t-15.5 -29t-28.5 -21t-43.5 -8q-21 0 -36 4v34q0 22 -8 37t-31 17q-11 0 -18.5 -3.5t-14.5 -8.5q-7 14 -7 32q0 30 26 53t72 23h7q17 -1 35 -7t33 -18 t24.5 -30.5t9.5 -43.5zM400 97q0 -24 -9.5 -42t-24.5 -30t-33 -18t-35 -7h-7q-46 0 -72 23t-26 53q0 18 7 32q13 -12 30 -12q25 2 33.5 17t8.5 37v34q15 4 36 4q26 0 43.5 -8t28.5 -21t15.5 -29.5t4.5 -32.5zM303 -82q0 -24 -5 -46.5t-17 -40t-32.5 -28.5t-51.5 -11 q-48 0 -70 24.5t-22 56.5q0 8 2 19t4 19q3 -9 12.5 -13.5t17.5 -4.5q21 0 29 12.5t8 32.5v50q12 -5 32.5 -6.5t42.5 -1.5q29 0 50 3v-65z" />
<glyph unicode="&#xe8;" horiz-adv-x="442" d="M179 0h-10q-23 0 -45 5.5t-39.5 19t-28.5 35.5t-11 54v269q0 55 26.5 90t86.5 35q40 0 66 -20.5t26 -65.5q0 -15 -4 -22q-14 12 -30 12q-22 0 -29.5 -15t-7.5 -32v-365zM268 507q5 1 10 1h10q54 0 84 -27.5t30 -78.5v-55q0 -68 -34 -101t-83 -33h-7q-38 2 -61.5 25.5 t-23.5 56.5q0 5 0.5 9t3.5 12q8 -8 14 -12t20 -4q23 0 30 16.5t7 38.5v152zM398 97q0 -28 -9.5 -46.5t-24.5 -30t-33 -16t-35 -4.5q-51 0 -72 25t-21 56q0 5 0.5 12t4.5 15q13 -12 30 -12q24 2 28 16t4 35v37q15 4 36 4q26 0 43.5 -8t28.5 -21t15.5 -29.5t4.5 -32.5z M232 566q-36 0 -57 13.5t-31 34.5t-12.5 46t-2.5 48h76q36 0 56.5 -14t31 -35t13 -46t2.5 -47h-76z" />
<glyph unicode="&#xe9;" horiz-adv-x="442" d="M179 0h-10q-23 0 -45 5.5t-39.5 19t-28.5 35.5t-11 54v269q0 55 26.5 90t86.5 35q40 0 66 -20.5t26 -65.5q0 -15 -4 -22q-14 12 -30 12q-22 0 -29.5 -15t-7.5 -32v-365zM268 507q5 1 10 1h10q54 0 84 -27.5t30 -78.5v-55q0 -68 -34 -101t-83 -33h-7q-38 2 -61.5 25.5 t-23.5 56.5q0 5 0.5 9t3.5 12q8 -8 14 -12t20 -4q23 0 30 16.5t7 38.5v152zM398 97q0 -28 -9.5 -46.5t-24.5 -30t-33 -16t-35 -4.5q-51 0 -72 25t-21 56q0 5 0.5 12t4.5 15q13 -12 30 -12q24 2 28 16t4 35v37q15 4 36 4q26 0 43.5 -8t28.5 -21t15.5 -29.5t4.5 -32.5z M139 566q0 22 2.5 47t13 46t31 35t56.5 14h76q0 -23 -2.5 -48t-12.5 -46t-31 -34.5t-57 -13.5h-76z" />
<glyph unicode="&#xea;" horiz-adv-x="442" d="M179 0h-10q-23 0 -45 5.5t-39.5 19t-28.5 35.5t-11 54v269q0 55 26.5 90t86.5 35q40 0 66 -20.5t26 -65.5q0 -15 -4 -22q-14 12 -30 12q-22 0 -29.5 -15t-7.5 -32v-365zM268 507q5 1 10 1h10q54 0 84 -27.5t30 -78.5v-55q0 -68 -34 -101t-83 -33h-7q-38 2 -61.5 25.5 t-23.5 56.5q0 5 0.5 9t3.5 12q8 -8 14 -12t20 -4q23 0 30 16.5t7 38.5v152zM332 663q12 -11 18 -26t6 -30q0 -18 -8 -35.5t-25 -29.5l-97 91l-96 -92q-17 12 -26 30t-9 37q0 16 6 30.5t18 24.5l107 91zM398 97q0 -28 -9.5 -46.5t-24.5 -30t-33 -16t-35 -4.5q-51 0 -72 25 t-21 56q0 5 0.5 12t4.5 15q13 -12 30 -12q24 2 28 16t4 35v37q15 4 36 4q26 0 43.5 -8t28.5 -21t15.5 -29.5t4.5 -32.5z" />
<glyph unicode="&#xeb;" horiz-adv-x="442" d="M179 0h-10q-23 0 -45 5.5t-39.5 19t-28.5 35.5t-11 54v269q0 55 26.5 90t86.5 35q40 0 66 -20.5t26 -65.5q0 -15 -4 -22q-14 12 -30 12q-22 0 -29.5 -15t-7.5 -32v-365zM268 507q5 1 10 1h10q54 0 84 -27.5t30 -78.5v-55q0 -68 -34 -101t-83 -33h-7q-38 2 -61.5 25.5 t-23.5 56.5q0 5 0.5 9t3.5 12q8 -8 14 -12t20 -4q23 0 30 16.5t7 38.5v152zM398 97q0 -28 -9.5 -46.5t-24.5 -30t-33 -16t-35 -4.5q-51 0 -72 25t-21 56q0 5 0.5 12t4.5 15q13 -12 30 -12q24 2 28 16t4 35v37q15 4 36 4q26 0 43.5 -8t28.5 -21t15.5 -29.5t4.5 -32.5zM66 658 q0 29 20.5 49.5t49.5 20.5t49.5 -20.5t20.5 -49.5t-20.5 -49t-49.5 -20t-49.5 20t-20.5 49zM222 658q0 29 21 49.5t50 20.5t49 -20.5t20 -49.5t-20 -49t-49 -20t-50 20t-21 49z" />
<glyph unicode="&#xec;" horiz-adv-x="244" d="M65 508h11q52 0 87.5 -28t35.5 -89v-391h-6q-23 0 -45.5 6t-41 19.5t-30 35t-11.5 53.5v394zM134 566q-35 0 -54 13t-27.5 32.5t-10 43.5t-1.5 46v7h46q37 0 57.5 -14t30 -35t11 -46t1.5 -47h-53z" />
<glyph unicode="&#xed;" horiz-adv-x="235" d="M40 508h11q52 0 87.5 -28t35.5 -89v-391h-6q-23 0 -45.5 6t-41 19.5t-30 35t-11.5 53.5v394zM43 566q0 22 1.5 47t11 46t29.5 35t58 14h46v-7q0 -22 -1.5 -46t-10 -43.5t-27.5 -32.5t-54 -13h-53z" />
<glyph unicode="&#xee;" horiz-adv-x="301" d="M256 663q24 -23 24 -56q0 -18 -8 -35.5t-25 -29.5l-97 91l-96 -92q-17 12 -25.5 29.5t-8.5 36.5q0 34 23 56l107 101zM83 508h11q52 0 87.5 -28t35.5 -89v-391h-6q-23 0 -45.5 6t-41 19.5t-30 35t-11.5 53.5v394z" />
<glyph unicode="&#xef;" horiz-adv-x="296" d="M79 508q24 0 48 -8.5t43 -24t31 -37t12 -46.5v-392q-23 0 -46.5 8.5t-43 24t-32 37.5t-12.5 50v388zM0 658q0 29 20.5 49.5t49.5 20.5t49.5 -20.5t20.5 -49.5t-20.5 -49t-49.5 -20t-49.5 20t-20.5 49zM156 658q0 29 21 49.5t50 20.5t49 -20.5t20 -49.5t-20 -49t-49 -20 t-50 20t-21 49z" />
<glyph unicode="&#xf0;" horiz-adv-x="486" d="M263 726h12q25 0 47.5 -6t39 -20t26 -38.5t9.5 -61.5v-492q0 -24 -9.5 -44t-26 -34t-39 -22t-48.5 -8h-11v726zM35 398q0 48 32 79t92 31q38 0 65 -21t27 -53q0 -8 -1 -15.5t-5 -15.5q-14 11 -32 11h-4q-23 -2 -31.5 -17t-8.5 -37v-201q0 -33 12 -49t32 -16q18 0 31 11 q7 -14 7 -31q0 -32 -27 -53t-65 -21q-60 0 -92 31.5t-32 100.5v266zM410 628h71q0 -42 -18.5 -69t-52.5 -29v98zM244 530h-71q0 42 18.5 69t52.5 29v-98z" />
<glyph unicode="&#xf1;" d="M273 352q0 12 -1.5 23t-6 19.5t-13 14t-23.5 5.5q-8 0 -16.5 -2.5t-15.5 -8.5q-4 8 -5 15.5t-1 15.5q0 32 29 53t74 21q54 0 83.5 -32.5t29.5 -95.5v-380h-6q-60 0 -94 28.5t-34 91.5v232zM45 508h11q52 0 87.5 -28t35.5 -89v-391h-6q-23 0 -45.5 6t-41 19.5t-30 35 t-11.5 53.5v394zM284 580q-19 3 -34 8t-29.5 9.5t-28.5 8t-30 3.5q-17 0 -33 -7.5t-30 -27.5q-19 28 -19 59q0 19 7.5 36.5t21 30t31 20t37.5 7.5t35.5 -4t29.5 -9.5t27.5 -9.5t29.5 -4t32 5.5t33 20.5q24 -36 24 -67q0 -32 -22 -56t-64 -24h-9q-4 0 -9 1z" />
<glyph unicode="&#xf2;" d="M179 156q0 -12 1.5 -23t6 -19.5t13 -14t23.5 -5.5q8 0 16.5 2.5t15.5 8.5q4 -8 5 -15.5t1 -15.5q0 -32 -27 -53t-65 -21q-60 0 -92 32t-32 80v278q0 33 12.5 55.5t32 36.5t43 20t46.5 6v-352zM407 118q0 -35 -12.5 -57.5t-32 -36t-43.5 -19t-46 -5.5v352q0 12 -1.5 23 t-6 19.5t-13 14t-23.5 5.5q-8 0 -16.5 -2.5t-15.5 -8.5q-4 8 -5 15.5t-1 15.5q0 32 27 53t65 21q60 0 92 -30.5t32 -87.5v-272zM245 566q-36 0 -57 13.5t-31 34.5t-12.5 46t-2.5 48h76q36 0 56.5 -14t31 -35t13 -46t2.5 -47h-76z" />
<glyph unicode="&#xf3;" d="M179 156q0 -12 1.5 -23t6 -19.5t13 -14t23.5 -5.5q8 0 16.5 2.5t15.5 8.5q4 -8 5 -15.5t1 -15.5q0 -32 -27 -53t-65 -21q-60 0 -92 32t-32 80v278q0 33 12.5 55.5t32 36.5t43 20t46.5 6v-352zM407 118q0 -35 -12.5 -57.5t-32 -36t-43.5 -19t-46 -5.5v352q0 12 -1.5 23 t-6 19.5t-13 14t-23.5 5.5q-8 0 -16.5 -2.5t-15.5 -8.5q-4 8 -5 15.5t-1 15.5q0 32 27 53t65 21q60 0 92 -30.5t32 -87.5v-272zM156 566q0 22 2.5 47t13 46t31 35t56.5 14h76q0 -23 -2.5 -48t-12.5 -46t-31 -34.5t-57 -13.5h-76z" />
<glyph unicode="&#xf4;" d="M338 663q12 -11 18 -26t6 -30q0 -18 -8 -35.5t-25 -29.5l-97 91l-96 -92q-17 12 -26 30t-9 37q0 16 6 30.5t18 24.5l107 91zM179 156q0 -12 1.5 -23t6 -19.5t13 -14t23.5 -5.5q8 0 16.5 2.5t15.5 8.5q4 -8 5 -15.5t1 -15.5q0 -32 -27 -53t-65 -21q-60 0 -92 32t-32 80 v278q0 33 12.5 55.5t32 36.5t43 20t46.5 6v-352zM407 118q0 -35 -12.5 -57.5t-32 -36t-43.5 -19t-46 -5.5v352q0 12 -1.5 23t-6 19.5t-13 14t-23.5 5.5q-8 0 -16.5 -2.5t-15.5 -8.5q-4 8 -5 15.5t-1 15.5q0 32 27 53t65 21q60 0 92 -30.5t32 -87.5v-272z" />
<glyph unicode="&#xf5;" d="M407 118q0 -35 -12.5 -57.5t-32 -36t-43.5 -19t-46 -5.5v352q0 12 -1.5 23t-6 19.5t-13 14t-23.5 5.5q-8 0 -16.5 -2.5t-15.5 -8.5q-4 8 -5 15.5t-1 15.5q0 32 27 53t65 21q60 0 92 -30.5t32 -87.5v-272zM179 156q0 -12 1.5 -23t6 -19.5t13 -14t23.5 -5.5q8 0 16.5 2.5 t15.5 8.5q4 -8 5 -15.5t1 -15.5q0 -32 -27 -53t-65 -21q-60 0 -92 32t-32 80v278q0 33 12.5 55.5t32 36.5t43 20t46.5 6v-352zM291 580q-19 3 -34 8t-29.5 9.5t-28.5 8t-30 3.5q-17 0 -33 -7.5t-30 -27.5q-19 28 -19 59q0 19 7.5 36.5t21 30t31 20t37.5 7.5t35.5 -4 t29.5 -9.5t27.5 -9.5t29.5 -4t32 5.5t33 20.5q24 -36 24 -67q0 -32 -22 -56t-64 -24h-9q-4 0 -9 1z" />
<glyph unicode="&#xf6;" d="M179 156q0 -12 1.5 -23t6 -19.5t13 -14t23.5 -5.5q8 0 16.5 2.5t15.5 8.5q4 -8 5 -15.5t1 -15.5q0 -32 -27 -53t-65 -21q-60 0 -92 32t-32 80v278q0 33 12.5 55.5t32 36.5t43 20t46.5 6v-352zM407 118q0 -35 -12.5 -57.5t-32 -36t-43.5 -19t-46 -5.5v352q0 12 -1.5 23 t-6 19.5t-13 14t-23.5 5.5q-8 0 -16.5 -2.5t-15.5 -8.5q-4 8 -5 15.5t-1 15.5q0 32 27 53t65 21q60 0 92 -30.5t32 -87.5v-272zM72 658q0 29 20.5 49.5t49.5 20.5t49.5 -20.5t20.5 -49.5t-20.5 -49t-49.5 -20t-49.5 20t-20.5 49zM228 658q0 29 21 49.5t50 20.5t49 -20.5 t20 -49.5t-20 -49t-49 -20t-50 20t-21 49z" />
<glyph unicode="&#xf7;" horiz-adv-x="431" d="M30 203q0 57 23.5 85t78.5 28h263q0 -57 -22 -85t-70 -28h-273zM145 444q0 31 21 52t50 21q31 0 52 -21t21 -52q0 -29 -21 -50t-52 -21q-29 0 -50 21t-21 50zM145 71q0 31 21 52t50 21q31 0 52 -21t21 -52q0 -29 -21 -50t-52 -21q-29 0 -50 21t-21 50z" />
<glyph unicode="&#xf8;" d="M407 118q0 -35 -12.5 -57.5t-32 -36t-43.5 -19t-46 -5.5v352q0 12 -1.5 23t-6 19.5t-13 14t-23.5 5.5q-8 0 -16.5 -2.5t-15.5 -8.5q-4 8 -5 15.5t-1 15.5q0 32 27 53t65 21q60 0 92 -30.5t32 -87.5v-272zM179 156q0 -12 1.5 -23t6 -19.5t13 -14t23.5 -5.5q8 0 16.5 2.5 t15.5 8.5q4 -8 5 -15.5t1 -15.5q0 -32 -27 -53t-65 -21q-60 0 -92 32t-32 80v278q0 33 12.5 55.5t32 36.5t43 20t46.5 6v-352zM392 480q-8 11 -21 19.5t-29 14t-34 5.5h-8q-4 0 -8 -1v42q0 32 9 54t24 35t35 18.5t43 5.5v-212q-3 9 -11 19zM61 17q9 -10 22 -18.5t29 -14 t34 -5.5h8q4 0 8 1v-42q0 -32 -9 -54t-24 -35t-35.5 -18.5t-42.5 -5.5v212q2 -10 10 -20z" />
<glyph unicode="&#xf9;" d="M179 158q0 -12 1.5 -23t6 -19.5t13 -14t23.5 -5.5q8 0 16.5 2.5t15.5 8.5q4 -8 5 -15.5t1 -15.5q0 -32 -26 -54t-71 -22q-54 0 -86.5 32t-32.5 98v377h6q60 0 94 -28.5t34 -91.5v-229zM407 2h-11q-52 0 -87.5 27.5t-35.5 89.5v388h6q22 0 45 -6t41.5 -19.5t30 -35.5 t11.5 -53v-391zM212 566q-36 0 -57 13.5t-31 34.5t-12.5 46t-2.5 48h76q36 0 56.5 -14t31 -35t13 -46t2.5 -47h-76z" />
<glyph unicode="&#xfa;" d="M179 158q0 -12 1.5 -23t6 -19.5t13 -14t23.5 -5.5q8 0 16.5 2.5t15.5 8.5q4 -8 5 -15.5t1 -15.5q0 -32 -26 -54t-71 -22q-54 0 -86.5 32t-32.5 98v377h6q60 0 94 -28.5t34 -91.5v-229zM407 2h-11q-52 0 -87.5 27.5t-35.5 89.5v388h6q22 0 45 -6t41.5 -19.5t30 -35.5 t11.5 -53v-391zM139 566q0 22 2.5 47t13 46t31 35t56.5 14h76q0 -23 -2.5 -48t-12.5 -46t-31 -34.5t-57 -13.5h-76z" />
<glyph unicode="&#xfb;" d="M320 663q12 -11 18 -26t6 -30q0 -18 -8 -35.5t-25 -29.5l-97 91l-96 -92q-17 12 -26 30t-9 37q0 16 6 30.5t18 24.5l107 91zM179 158q0 -12 1.5 -23t6 -19.5t13 -14t23.5 -5.5q8 0 16.5 2.5t15.5 8.5q4 -8 5 -15.5t1 -15.5q0 -32 -26 -54t-71 -22q-54 0 -86.5 32 t-32.5 98v377h6q60 0 94 -28.5t34 -91.5v-229zM407 2h-11q-52 0 -87.5 27.5t-35.5 89.5v388h6q22 0 45 -6t41.5 -19.5t30 -35.5t11.5 -53v-391z" />
<glyph unicode="&#xfc;" d="M179 158q0 -12 1.5 -23t6 -19.5t13 -14t23.5 -5.5q8 0 16.5 2.5t15.5 8.5q4 -8 5 -15.5t1 -15.5q0 -32 -26 -54t-71 -22q-54 0 -86.5 32t-32.5 98v377h6q60 0 94 -28.5t34 -91.5v-229zM407 2h-11q-52 0 -87.5 27.5t-35.5 89.5v388h6q22 0 45 -6t41.5 -19.5t30 -35.5 t11.5 -53v-391zM70 658q0 29 20.5 49.5t49.5 20.5t49.5 -20.5t20.5 -49.5t-20.5 -49t-49.5 -20t-49.5 20t-20.5 49zM226 658q0 29 21 49.5t50 20.5t49 -20.5t20 -49.5t-20 -49t-49 -20t-50 20t-21 49z" />
<glyph unicode="&#xfd;" d="M179 158q0 -12 1.5 -23t6 -19.5t13 -14t23.5 -5.5q8 0 16.5 2.5t15.5 8.5q4 -8 5 -15.5t1 -15.5q0 -32 -26 -54t-71 -22q-54 0 -86.5 33.5t-32.5 96.5v377h6q60 0 94 -28.5t34 -91.5v-229zM407 -17q0 -62 -35.5 -89.5t-87.5 -27.5h-11v641h6q22 0 45 -6t41.5 -19.5 t30 -35.5t11.5 -53v-410zM105 -177q0 31 12 50.5t29 30.5t36 14.5t33 3.5q12 0 20 -2v-46q0 -21 10 -31t25 -10q18 0 32 12q3 -8 3.5 -14.5t0.5 -14.5q0 -12 -5.5 -27.5t-17 -29t-30 -23t-44.5 -9.5q-27 0 -46.5 9t-32 22.5t-19 30.5t-6.5 34zM137 566q0 22 2.5 47t13 46 t31 35t56.5 14h76q0 -23 -2.5 -48t-12.5 -46t-31 -34.5t-57 -13.5h-76z" />
<glyph unicode="&#xfe;" d="M50 759h5q22 0 44 -4.5t39 -17.5t27.5 -36.5t10.5 -61.5v-772q0 -37 -9 -60t-24.5 -36t-36.5 -18t-46 -5h-10v1011zM407 132q0 -69 -32 -100.5t-92 -31.5q-38 0 -65 21t-27 53q0 17 7 31q13 -11 31 -11q20 0 32 16t12 49v201q0 22 -8.5 38t-31.5 16q-22 0 -36 -11 q-4 8 -5 15.5t-1 15.5q0 32 27 53t65 21q60 0 92 -31t32 -79v-266z" />
<glyph unicode="&#xff;" d="M179 158q0 -12 1.5 -23t6 -19.5t13 -14t23.5 -5.5q8 0 16.5 2.5t15.5 8.5q4 -8 5 -15.5t1 -15.5q0 -32 -26 -54t-71 -22q-54 0 -86.5 33.5t-32.5 96.5v377h6q60 0 94 -28.5t34 -91.5v-229zM407 -17q0 -62 -35.5 -89.5t-87.5 -27.5h-11v641h6q22 0 45 -6t41.5 -19.5 t30 -35.5t11.5 -53v-410zM105 -177q0 31 12 50.5t29 30.5t36 14.5t33 3.5q12 0 20 -2v-46q0 -21 10 -31t25 -10q18 0 32 12q3 -8 3.5 -14.5t0.5 -14.5q0 -12 -5.5 -27.5t-17 -29t-30 -23t-44.5 -9.5q-27 0 -46.5 9t-32 22.5t-19 30.5t-6.5 34zM68 658q0 29 20.5 49.5 t49.5 20.5t49.5 -20.5t20.5 -49.5t-20.5 -49t-49.5 -20t-49.5 20t-20.5 49zM224 658q0 29 21 49.5t50 20.5t49 -20.5t20 -49.5t-20 -49t-49 -20t-50 20t-21 49z" />
<glyph unicode="&#x3bc;" horiz-adv-x="462" d="M189 149q1 -20 9.5 -36.5t34.5 -16.5q8 0 16.5 2.5t15.5 8.5q4 -8 5 -15.5t1 -15.5q0 -29 -22 -50.5t-60 -25.5v-249h-11q-52 0 -87.5 27.5t-35.5 89.5v640h16q58 0 88 -32t30 -83v-244zM417 0h-11q-53 0 -88 28.5t-35 90.5v389h6q22 0 45 -6.5t41.5 -20t30 -35.5 t11.5 -53v-393z" />
<glyph unicode="&#x2021;" horiz-adv-x="528" d="M336 435q0 -51 -25.5 -82t-85.5 -31v196q0 32 9 54t24 35t35 18.5t43 5.5v-196zM313 113q0 -51 -25.5 -82t-85.5 -31v206q0 32 9 54t24 35t35 18.5t43 5.5v-206zM498 459q0 -23 -2.5 -43t-12 -35t-28 -23.5t-50.5 -8.5h-56v4q0 35 6.5 56t17.5 32t26.5 14.5t32.5 3.5h66z M479 296q0 -23 -2.5 -43t-12 -35t-28 -23.5t-50.5 -8.5h-56v4q0 35 6.5 56t17.5 32t26.5 14.5t32.5 3.5h66zM206 459q0 -23 -2.5 -43t-12 -35t-28 -23.5t-50.5 -8.5h-56v4q0 35 6.5 56t17.5 32t26.5 14.5t32.5 3.5h66zM180 296q0 -23 -2.5 -43t-12 -35t-28 -23.5t-50.5 -8.5 h-56v4q0 35 6.5 56t17.5 32t26.5 14.5t32.5 3.5h66z" />
<glyph unicode="&#x20ac;" horiz-adv-x="559" d="M305 0h-10q-26 0 -50 5t-42.5 18t-30 36t-11.5 60v487q0 36 11 59t29 36.5t41 19t47 5.5h16v-726zM524 96q0 -17 -6 -34t-19 -31t-32 -22.5t-45 -8.5q-27 0 -46 8.5t-30.5 22t-17 29t-5.5 29.5q0 8 0.5 14.5t3.5 14.5q13 -12 32 -12q15 0 25 9.5t10 28.5v49q8 2 20 2 q14 0 33 -3.5t36 -14.5t29 -30.5t12 -50.5zM524 631q0 -32 -12 -51t-29 -30t-36 -14.5t-33 -3.5q-12 0 -20 2v46q0 21 -10 31t-25 10q-19 0 -32 -12q-3 8 -3.5 14.5t-0.5 14.5q0 12 5.5 27.5t17 29t30 23t44.5 9.5q27 0 46.5 -9t32 -22.5t19 -31t6.5 -33.5zM324 492h177 q0 -20 -4 -40t-16 -36.5t-34 -27t-57 -11.5q-17 -1 -37 -1h-29v116zM324 344l157 -2q0 -26 -5.5 -47t-22.5 -36t-48 -23t-81 -8v116zM141 376q-63 0 -89.5 31t-26.5 85h116v-116zM141 225q-27 0 -47 10t-33 26t-19.5 37t-6.5 44h106v-117z" />
<glyph unicode="&#x25fc;" horiz-adv-x="510" d="M0 510h510v-510h-510v510z" />
<glyph unicode="&#xfb00;" horiz-adv-x="540" d="M45 510q0 36 9.5 60t26 38.5t39.5 21t49 6.5h10v-528q0 -24 -9.5 -44t-26 -34t-39 -22t-48.5 -8h-11v510zM271 510q0 36 9.5 60t26 38.5t39.5 21t49 6.5h10v-528q0 -24 -9.5 -44t-26 -34t-39 -22t-48.5 -8h-11v510zM395 737q15 16 37 21t33 5q43 0 71.5 -26t28.5 -66 q0 -19 -5.5 -36.5t-16.5 -30.5t-29 -21t-42 -8q-21 0 -36 4v84q0 12 -0.5 24.5t-4.5 23t-12.5 17.5t-23.5 9zM405 646q-12 3 -25 3q-16 0 -33.5 -4t-33 -12.5t-27 -22t-15.5 -30.5v33q0 21 -4 33t-10 18t-13.5 7.5t-13.5 1.5q-15 0 -24 -5t-14 -10q-1 3 -1 13q0 21 9 38 t23.5 29t33 18.5t36.5 6.5q39 0 72.5 -24t39.5 -75v-18zM435 504h89q0 -23 -3.5 -42t-13 -33.5t-25.5 -22.5t-41 -8h-6v106zM189 504h59v-15q0 -51 -15 -71t-44 -20v106z" />
<glyph unicode="&#xfb01;" horiz-adv-x="443" d="M45 510q0 36 9.5 60t26 38.5t39.5 21t49 6.5h10v-528q0 -32 -8.5 -53t-23.5 -33.5t-36 -17.5t-45 -5q-5 0 -10.5 0.5t-10.5 0.5v510zM274 508h11q52 0 87.5 -28t35.5 -89v-391h-6q-23 0 -45.5 6t-41 19.5t-30 35t-11.5 53.5v394zM241 636q-2 16 -11.5 24t-22.5 8 q-20 0 -37 -17q-2 4 -2 11q0 15 4 32.5t16.5 32.5t34.5 25t58 10q60 0 90.5 -33t30.5 -82q0 -45 -24 -68.5t-56 -23.5q-42 0 -61.5 23t-19.5 58zM188 504h69q0 -60 -18.5 -83t-50.5 -23v106z" />
<glyph unicode="&#xfb02;" horiz-adv-x="442" d="M45 510q0 36 9.5 60t26 38.5t39.5 21t49 6.5h10v-528q0 -30 -9 -51t-24.5 -34t-36.5 -18.5t-46 -5.5q-5 0 -9 0.5t-9 0.5v510zM407 0h-11q-26 0 -48.5 8t-39 22t-26 34t-9.5 44v505q0 21 -4 32.5t-10 17t-13.5 7t-13.5 1.5q-11 0 -21 -4t-17 -9q-3 12 -3 25v9 q1 11 6.5 23.5t16.5 23t28.5 17.5t42.5 7q22 0 43.5 -6.5t39 -20.5t28.5 -36.5t11 -54.5v-645zM189 504h70q0 -60 -19 -83t-51 -23v106z" />
<glyph unicode="&#xfb05;" horiz-adv-x="488" d="M273 613q0 21 -4 32.5t-10 17t-13.5 7t-13.5 1.5q-11 0 -21 -4t-17 -9q-3 12 -3 25v9q1 11 6.5 23.5t16.5 23t28.5 17.5t42.5 7q22 0 43.5 -6.5t39 -20.5t28.5 -36.5t11 -54.5v-496q0 -23 4.5 -40.5t24.5 -19.5q15 0 23 7.5t11 13.5q8 -14 8 -37q0 -27 -23 -49.5 t-60 -23.5h-4q-18 0 -39 5t-38.5 18.5t-29 37t-11.5 61.5v491zM45 510q0 36 9.5 60t26 38.5t39.5 21t49 6.5h10v-528q0 -33 -8.5 -54t-23 -33t-35 -17t-44.5 -5h-11q-6 0 -12 1v510zM189 504h71v-9q0 -48 -20.5 -72.5t-50.5 -24.5v106zM418 504h59q0 -60 -13.5 -83 t-45.5 -23v106z" />
<glyph unicode="&#xfb06;" horiz-adv-x="672" d="M583 508h83q0 -5 0.5 -9t0.5 -8q0 -42 -18.5 -65t-60.5 -23h-5v105zM563 176q0 -45 4.5 -66t30.5 -21q14 0 23 6.5t14 14.5q4 -7 7 -14.5t3 -19.5q0 -20 -9 -34.5t-23 -24t-31 -14t-33 -4.5q-22 0 -43.5 6.5t-39 21.5t-28 40t-10.5 61v365q0 21 -4 32.5t-10 17t-13.5 7 t-13.5 1.5q-11 0 -21 -4t-17 -9q-3 12 -3 25v9q2 27 25 51.5t73 24.5q33 0 56 -11t37 -31t20 -48t6 -63v-319zM169 250h-9q-23 0 -45.5 5.5t-40 19t-28.5 35.5t-11 54v26q0 36 12 59t31 36t43 18t48 5v-258zM254 258h9q23 0 45.5 -5.5t40 -19t28.5 -35.5t11 -54v-26 q0 -36 -12 -59t-31 -36t-43 -18t-48 -5v258zM384 420q0 -32 -12 -51t-29 -30t-36 -14.5t-33 -3.5q-12 0 -20 2v46q0 21 -10 31t-25 10q-19 0 -32 -12q-3 8 -3.5 14.5t-0.5 14.5q0 12 5.5 27.5t17 29t30 23t44.5 9.5q27 0 46.5 -9t32 -22.5t19 -31t6.5 -33.5zM40 96 q0 31 12 50.5t29 30.5t36 14.5t33 3.5q12 0 20 -2v-46q0 -21 10 -31t25 -10q18 0 32 12q3 -8 3.5 -14.5t0.5 -14.5q0 -12 -5.5 -27.5t-17 -29t-30 -23t-44.5 -9.5q-27 0 -46.5 9t-32 22.5t-19 30.5t-6.5 34z" />
</font>
</defs>
</svg>
